<svg width="1317" height="743" viewBox="0 0 1317 743" fill="none" xmlns="http://www.w3.org/2000/svg">
<path d="M329.819 246.425C343.906 246.425 351.652 255.401 351.652 271.955C351.652 288.215 336.375 302.67 333.408 305.325L331.263 302.029C342.028 290.503 347.553 282.157 347.553 271.573C347.553 260.242 343.66 251.028 329.819 251.028C272.84 251.028 190.233 350.45 139.872 425.434C120.216 472.609 100.451 511.985 95.1763 511.985C92.7465 511.985 91.6868 509.527 91.6868 505.568C91.6868 499.099 103.444 475.364 122.404 444.704C140.654 399.007 163.23 338.74 173.748 303.189C139.688 352.222 27.0436 519.312 46.2767 549.468L42.9575 551.426C42.4324 550.753 39.3163 546.408 39.3163 538.069C39.3163 488.673 154.913 322.929 176.877 291.954C178.66 285.003 179.662 279.692 179.662 276.544C179.662 269.005 177.762 263.516 169.273 263.516C157.714 263.516 133.351 276.158 107.366 289.635C77.971 304.886 46.5334 321.195 29.1414 321.195C4.81761 321.195 0 304.542 0 292.984C0 288.948 3.43348 284.815 6.77592 284.663L6.99771 289.096C6.41418 289.252 3.84433 290.163 3.84433 294.132C3.84433 298.293 6.19477 312.188 26.1164 312.188C39.7733 312.188 64.6351 300.216 90.8179 287.606C119.686 273.704 150.134 259.041 169.019 259.041C179.502 259.041 185.055 266.127 185.055 279.603C185.055 303.182 167.484 356.456 147.761 406.056C198.575 332.722 273.844 246.424 329.816 246.424L329.819 246.425ZM97.7445 502.8C100.669 497.067 105.984 484.887 112.557 468.988C104.026 483.796 98.3163 495.382 96.3533 501.777C95.3846 504.929 95.3939 507.414 97.7445 502.8V502.8ZM232.644 419.92L234.479 423.238C230.27 427.791 206.439 453.024 193.894 454.215C187.721 454.802 184.038 450.964 183.729 443.489C183.563 439.473 186.756 432.377 190.778 425.118C188.031 427.434 185.368 429.321 183.841 429.467C181.36 429.7 179.066 427.289 178.923 423.826C178.727 419.077 190.601 404.934 198.628 404.17C200.32 404.01 202.085 404.339 203.513 404.747C204.603 403.15 205.418 401.988 205.819 401.418L212.642 404.357C210.655 407.115 188.183 438.495 188.47 445.475C188.64 449.572 190.085 450.974 193.11 450.687C205.136 449.544 229.018 423.882 232.644 419.919L232.644 419.92ZM185.282 425.036C188.337 422.933 194.126 417.459 196.964 414.718C198.556 412.193 200.09 409.846 201.432 407.831C201.271 407.831 201.117 407.831 200.969 407.845C196.978 408.227 187.493 419.243 184.778 423.779C183.975 425.121 184.057 425.876 185.282 425.036L185.282 425.036ZM262.982 387.192C242.58 419.472 221.064 457.587 220.764 463.239C220.656 465.25 220.937 465.601 221.399 465.658C233.093 467.092 277.05 419.014 277.05 419.014L278.618 422.683C278.618 422.683 233.87 471.247 221.421 469.716C217.565 469.241 215.462 465.591 215.765 459.868C216.356 448.817 235.286 416.75 254.164 388.641L236.864 391.488L237.109 386.928L257.474 383.755C272.765 361.351 287.31 342.527 291.231 340.7L293.54 343.802C287.452 350.211 277.065 365.165 266.016 382.423L294.303 378.015L294.086 382.076L262.982 387.192ZM335.29 420.402L337.619 423.379C334.606 427.511 311.718 458.41 300.574 458.41C294.44 458.41 291.55 453.583 292.087 444.242C292.498 437.111 297.176 426.197 301.881 416.856C293.114 425.942 281.017 437.745 277.294 437.745C274.493 437.745 273.141 435.949 273.347 432.38C273.748 425.383 284.989 408.988 286.355 407.02H292.318C292.211 408.065 291.758 410.6 290.484 412.551C282.011 425.5 278.048 432.154 277.879 433.662C281.245 432.55 302.934 410.419 308.31 404.896C309.811 402.265 310.976 400.317 311.527 399.407L318.613 400.424C318.338 400.948 317.705 402.138 316.541 404.319C311.097 414.517 297.438 440.111 297.013 447.491C296.731 452.388 297.742 454.374 300.433 454.374C310.236 454.374 333.256 423.182 335.29 420.403L335.29 420.402ZM406.716 419.181L408.491 422.501C391.503 444.653 367.276 470.335 357.47 470.065C352.134 469.916 351.383 464.067 351.45 458.497C351.677 439.701 371.862 404.453 375.905 397.57C371.421 395.438 367.36 392.545 364.253 390.007C357.89 399.192 348.451 411.607 337.257 425.484L335.611 421.73C348.395 406.005 356.536 395.109 361.646 387.776C360.833 387.05 360.143 386.399 359.592 385.864C358.198 384.515 357.832 383.042 359.337 381.123C362.042 377.674 368.219 371.293 370.739 371.364C372.245 371.406 373.022 372.412 372.996 374.547C372.975 376.25 370.543 380.669 366.272 387.047C371.729 391.448 375.837 393.661 378.075 394.681C380.533 395.8 380.71 397.071 378.376 402.606C372.259 417.106 356.321 455.534 356.237 462.4C356.207 464.829 356.519 466.188 357.306 466.21C366.106 466.458 386.748 443.066 396.569 431.667C400.119 427.546 403.496 423.371 406.717 419.182L406.716 419.181ZM362.08 383.448C362.614 383.933 363.139 384.4 363.655 384.85C366.923 380.006 368.554 377.134 369.273 375.675C367.322 377.435 363.681 381.592 362.08 383.448V383.448ZM445.008 418.472L445.974 422.424C440.54 427.742 418.891 445.107 408.015 445.107C402.278 445.107 401.498 439.789 401.498 435.933C401.498 424.825 419.917 399.057 427.834 399.057C429.979 399.057 431.987 400.863 431.987 403.816C431.987 408.682 419.849 417.042 414.457 420.516C410.377 427.601 406.981 434.871 406.981 438.32C406.981 440.055 407.46 441.305 407.936 441.305C417.321 441.305 435.413 427.481 445.007 418.472L445.008 418.472ZM428.391 403.339C428.391 403.077 428.244 402.617 427.833 402.617C426.598 402.617 423.095 406.94 419.307 412.659C423.73 409.476 428.391 405.584 428.391 403.339H428.391ZM505.496 419.751L506.999 423.54C503.113 427.531 441.674 490.345 425.37 490.345C421.603 490.345 419.17 486.754 419.17 481.171C419.17 450.389 483.898 352.195 496.155 352.195C498.506 352.195 499.841 354.1 499.841 357.553C499.841 371.607 479.107 397.945 455.895 414.146C439.433 443.182 424.335 473.834 424.335 482.124C424.335 485.014 424.858 485.835 425.999 485.835C438.478 485.835 502.757 422.46 505.496 419.752L505.496 419.751ZM496.154 355.753C491.875 355.753 476.246 379.073 460.658 405.849C473.113 395.268 496.247 370.964 496.247 357.076C496.247 355.168 496.632 355.756 496.154 355.756L496.154 355.753ZM568.05 419.751L569.554 423.54C565.667 427.531 504.228 490.345 487.924 490.345C484.157 490.345 481.725 486.754 481.725 481.171C481.725 450.389 546.452 352.195 558.709 352.195C561.06 352.195 562.395 354.1 562.395 357.553C562.395 371.607 541.661 397.945 518.449 414.146C501.987 443.182 486.889 473.834 486.889 482.124C486.889 485.014 487.412 485.835 488.554 485.835C501.032 485.835 565.311 422.46 568.05 419.752L568.05 419.751ZM558.708 355.753C554.429 355.753 538.8 379.073 523.212 405.849C535.667 395.268 558.801 370.964 558.801 357.076C558.801 355.168 559.186 355.756 558.708 355.756L558.708 355.753ZM621.974 419.92L623.808 423.238C619.6 427.791 595.769 453.024 583.224 454.215C577.05 454.802 573.367 450.964 573.059 443.489C572.893 439.473 576.086 432.377 580.108 425.118C577.36 427.434 574.697 429.321 573.171 429.467C570.69 429.7 568.395 427.289 568.253 423.826C568.057 419.077 579.93 404.934 587.957 404.17C589.65 404.01 591.414 404.339 592.843 404.747C593.933 403.15 594.747 401.988 595.149 401.418L601.971 404.357C599.985 407.115 577.512 438.495 577.799 445.475C577.97 449.572 579.415 450.974 582.44 450.687C594.465 449.544 618.347 423.882 621.974 419.919L621.974 419.92ZM574.611 425.036C577.667 422.933 583.455 417.459 586.294 414.718C587.885 412.193 589.419 409.846 590.761 407.831C590.6 407.831 590.446 407.831 590.299 407.845C586.308 408.227 576.822 419.243 574.108 423.779C573.305 425.121 573.386 425.876 574.612 425.036L574.611 425.036ZM801.843 215.619C793.144 221.561 780.365 238.756 770.995 257.314C772.774 260.95 773.714 266.017 773.714 272.327C773.714 284.48 765.351 301.923 759.675 301.923C753.599 301.923 754.288 288.18 759.845 269.583C761.297 264.732 763.097 259.909 765.16 255.232C764.191 254.587 763.026 254.219 761.626 254.219C753.594 254.219 745.739 263.953 741.615 279.516C739.23 288.51 737.883 298.577 737.883 308.69C737.883 315.8 738.068 323.792 738.271 332.464C738.807 355.502 739.452 383.18 736.975 410.808C757.088 411.212 772.483 417.037 775.494 419.753L774.46 423.329C771.558 420.879 756.244 414.778 736.627 414.459C735.406 426.693 733.543 438.874 730.761 450.601C712.875 525.98 666.972 603.213 631.322 603.213C606.043 603.213 603.093 580.048 603.093 565.778C603.093 504.359 670.079 415.733 729.829 410.984C731.783 388.626 731.65 367.756 731.529 348.433C731.433 333.649 731.344 319.757 732.215 306.734C733.055 294.157 734.596 284.313 736.918 276.278C741.761 259.533 750.033 250.734 761.387 250.734C763.329 250.734 765.06 251.212 766.573 252.139C775.557 233.142 788.747 217.126 800.289 212.668L801.843 215.619ZM769.951 272.686C769.951 269.726 769.897 265.314 768.931 261.546C767.094 265.441 765.432 269.365 764.01 273.228C759.884 284.424 758.049 297.901 759.73 297.901C762.001 297.901 769.951 283.426 769.951 272.686V272.686ZM629.663 598.557C662.86 598.557 708.226 531.677 724.828 446.889C726.991 435.844 728.476 425.112 729.489 414.701C671.197 419.96 606.674 506.156 606.674 566.883C606.674 586.851 615.156 598.561 629.665 598.561L629.663 598.557ZM827.376 419.92L829.21 423.238C825.002 427.791 801.17 453.024 788.626 454.215C782.452 454.802 778.769 450.964 778.46 443.489C778.295 439.473 781.488 432.377 785.509 425.118C782.762 427.434 780.099 429.321 778.572 429.467C776.091 429.7 773.797 427.289 773.654 423.826C773.458 419.077 785.332 404.934 793.359 404.17C795.051 404.01 796.816 404.339 798.244 404.747C799.334 403.15 800.149 401.988 800.55 401.418L807.373 404.357C805.387 407.115 782.914 438.495 783.201 445.475C783.372 449.572 784.816 450.974 787.842 450.687C799.867 449.544 823.749 423.882 827.376 419.919L827.376 419.92ZM780.013 425.036C783.068 422.933 788.857 417.459 791.695 414.718C793.287 412.193 794.821 409.846 796.163 407.831C796.002 407.831 795.848 407.831 795.701 407.845C791.709 408.227 782.224 419.243 779.509 423.779C778.706 425.121 778.788 425.876 780.013 425.036L780.013 425.036ZM890.157 419.751L891.661 423.54C887.775 427.531 826.335 490.345 810.031 490.345C806.264 490.345 803.832 486.754 803.832 481.171C803.832 450.389 868.56 352.195 880.817 352.195C883.167 352.195 884.502 354.1 884.502 357.553C884.502 371.607 863.768 397.945 840.557 414.146C824.094 443.182 808.997 473.834 808.997 482.124C808.997 485.014 809.519 485.835 810.661 485.835C823.139 485.835 887.418 422.46 890.158 419.752L890.157 419.751ZM880.815 355.753C876.537 355.753 860.907 379.073 845.319 405.849C857.774 395.268 880.908 370.964 880.908 357.076C880.908 355.168 881.294 355.756 880.815 355.756L880.815 355.753ZM920.011 422.376C913.496 427.015 906.44 429.232 901.419 427.999C897.309 436.36 890.988 443.976 886.726 443.976C884.018 443.976 882.725 441.412 882.725 436.707C882.725 431.041 887.97 423.807 893.014 418.162C892.874 417.175 892.839 416.144 892.916 415.085C893.268 410.231 896.072 406.53 899.391 406.53C902.936 406.53 905.511 409.537 905.511 413.8C905.511 416.941 904.51 420.786 902.922 424.667C907.577 425.237 912.849 423.361 919.303 418.563L920.011 422.376ZM899.706 409.611C898.27 409.611 896.639 411.884 896.244 414.71C898.198 412.713 899.911 411.108 900.992 410.128C900.628 409.798 900.196 409.611 899.706 409.611V409.611ZM897.309 420.92C897.825 421.957 898.476 422.829 899.181 423.409C900.777 419.801 901.917 416.494 902.176 414.546C900.843 416.203 899.116 418.449 897.309 420.92L897.309 420.92ZM886.978 440.4C889.989 440.025 894.487 433.135 897.82 426.325C896.831 425.624 895.967 424.767 895.253 423.786C891.009 429.827 886.948 436.399 886.948 439.09C886.948 440.082 887.055 440.336 886.978 440.4L886.978 440.4ZM990.244 419.813L992.261 422.851C989.451 427.09 968.409 458.179 956.164 458.179C948.562 458.179 944.96 451.356 946.494 439.905C947.154 434.965 950.088 428.276 952.289 423.259C954.357 418.546 954.997 416.846 954.997 415.915C954.997 415.777 955.069 415.728 955.104 415.713C955.079 415.72 955.027 415.72 954.927 415.72C952.98 415.72 946.422 420.879 935.627 430.954C935.293 431.265 934.908 431.545 934.513 431.786C932.212 435.996 929.665 440.461 926.883 445.054L922.002 440.252C922.002 440.252 938.558 411.22 942.339 402.941C944.611 397.966 944.949 396.022 943.924 396.022C941.061 396.022 935.209 404.024 927.628 414.388C924.15 419.147 922.763 421.017 920.287 424.293L918.545 420.596C920.753 417.654 923.223 414.255 925.328 411.354C933.337 400.331 939.072 392.435 943.924 392.435C949.094 392.435 950.254 397.753 946.907 406.981C945.196 410.73 942.708 416.045 939.496 422.341C944.954 417.568 951.916 412.136 955.338 412.136C957.95 412.136 959.806 414.25 959.806 417.788C959.806 422.61 956.697 430.054 954.297 435.794C952.362 440.425 951.835 441.873 951.491 443.378C950.525 447.606 951.183 454.593 955.476 454.593C967.646 454.593 988.509 422.512 990.245 419.814L990.244 419.813Z" fill="url(#paint0_linear_1_5)"/>
<path d="M1072.26 316.924C1066.74 327.405 1060.8 337.394 1054.48 346.835C1048.18 354.906 1041.6 362.494 1034.78 369.568C1018.43 387.175 1002.69 405.449 986.829 423.95C985.409 425.607 987.025 428.524 988.481 427.09C1006.61 409.23 1024.57 391.491 1042.16 372.37C1056.57 360.095 1068.3 341.8 1075.84 319.841C1076.02 319.144 1076.02 318.385 1075.85 317.7C1075.68 317.015 1075.36 316.447 1074.93 316.097C1074.5 315.748 1074 315.639 1073.51 315.79C1073.02 315.942 1072.58 316.343 1072.26 316.924V316.924Z" fill="url(#paint1_linear_1_5)"/>
<path d="M1082.75 327.803C1081.87 325.821 1080.03 327.886 1080.46 329.878C1084.46 348.73 1073.7 366.428 1066.06 380.039C1058.24 393.978 1048.71 405.57 1038 414.157C1035.89 415.896 1036.49 421.687 1039.19 420.591C1054 412.714 1066.68 397.524 1075.08 377.594C1082.43 362.711 1090.39 345.015 1082.75 327.803Z" fill="url(#paint2_linear_1_5)"/>
<path d="M1189.64 360.29C1174.9 364.268 1160.44 370.49 1146.51 378.851C1130.39 386.56 1114.09 393.351 1097.76 399.91C1067.34 411.469 1037.37 425.641 1008.01 442.351C1006.43 443.283 1007.44 446.566 1009 445.775C1040.03 430.095 1072.59 419.647 1104.17 406.807C1133.49 394.887 1161.46 377.771 1190.51 364.892C1192.43 364.044 1191.43 360.01 1189.64 360.29Z" fill="url(#paint3_linear_1_5)"/>
<path d="M1191.72 378.709C1181.9 386.874 1172.44 395.994 1163.41 406.008C1152.77 416.212 1142.14 426.429 1131.22 435.938C1110.08 453.955 1088.15 469.759 1065.6 483.229C1063.92 484.257 1065.01 487.694 1066.65 486.916C1090.49 476.196 1113.48 461.365 1135.13 442.731C1144.02 434.901 1152.7 426.597 1161.22 417.92C1159.18 422.047 1157.28 426.332 1155.54 430.756C1150.91 442.386 1148.58 459.163 1141.27 467.721C1132.28 476.507 1122.88 484.313 1113.16 491.077C1103.36 499.363 1093.85 508.388 1083.94 516.405C1082.43 517.627 1083.43 521.22 1084.97 520.009C1095.43 511.79 1106.26 504.712 1116.79 496.72C1121.4 493.227 1126.36 489.898 1131.21 486.277C1127.7 493.72 1124.51 501.634 1120.58 508.451C1111.6 523.064 1101 535.294 1089.28 544.583C1066.86 562.682 1045.04 582.418 1023.89 603.717C1023.63 604.032 1023.45 604.474 1023.39 604.962C1023.32 605.449 1023.38 605.949 1023.55 606.369C1023.71 606.789 1023.98 607.102 1024.29 607.249C1024.61 607.396 1024.95 607.368 1025.26 607.17C1050.53 588.916 1075.12 568.563 1098.91 546.211C1107.97 538.587 1116.2 528.914 1123.29 517.552C1131.09 505.863 1137.41 492.184 1141.91 477.211C1142.87 476.262 1143.81 475.294 1144.72 474.279C1150.09 466.634 1154.06 457.09 1156.24 446.596C1160.66 432.418 1167.3 420.704 1172.35 407.244L1172.46 406.791C1179.93 399.883 1186.95 391.901 1193.4 382.962C1194.69 381.055 1193.62 377.379 1191.72 378.709Z" fill="url(#paint4_linear_1_5)"/>
<path d="M1149.17 235.94C1146.21 212.102 1139.47 189.824 1129.5 170.947C1129.26 170.529 1128.92 170.27 1128.55 170.223C1128.18 170.176 1127.81 170.346 1127.51 170.697C1127.21 171.047 1127.02 171.551 1126.96 172.103C1126.9 172.656 1126.99 173.213 1127.21 173.659C1130.01 180.854 1132.39 188.419 1134.3 196.269C1128.68 205.05 1122.55 213.087 1116 220.285C1115.06 221.337 1115.98 223.832 1117.05 222.925C1123.75 217.121 1130.03 210.235 1135.75 202.395C1136.81 207.117 1137.77 211.904 1138.67 216.775C1131.88 223.563 1124.67 229.339 1117.15 234.018C1111.26 237.09 1105.62 241.15 1100.32 246.116C1089.3 257.071 1081.22 273.511 1077.57 292.373C1077.47 292.796 1077.48 293.258 1077.6 293.661C1077.72 294.065 1077.94 294.378 1078.22 294.536C1078.49 294.693 1078.8 294.682 1079.08 294.505C1079.36 294.329 1079.58 294 1079.71 293.588C1083.03 282.706 1087.77 272.871 1093.65 264.667C1099.52 256.463 1106.4 250.059 1113.89 245.834C1123.58 242.363 1132.63 235.503 1140.3 225.827L1140.67 227.914C1141.43 232.33 1142.23 236.733 1143 241.142C1143.46 246.109 1143.02 251.207 1141.72 255.908C1140.42 260.61 1138.31 264.745 1135.61 267.885C1128.81 276.768 1121.4 284.537 1113.51 291.054C1112.18 292.156 1113.03 295.334 1114.42 294.276C1125.54 287.876 1135.71 278.106 1144.26 265.597C1145.12 263.952 1145.88 262.194 1146.52 260.345C1147.67 264.901 1147.95 265.964 1148 265.635C1148.17 266.138 1148.41 266.575 1148.71 266.913C1149.01 267.252 1149.36 267.483 1149.74 267.59C1158.49 269.617 1149.81 239.091 1149.17 235.94Z" fill="url(#paint5_linear_1_5)"/>
<path d="M1157.71 156.021C1153.67 156.239 1149.68 157.609 1145.95 160.055C1141.24 162.221 1136.71 164.992 1132.05 167.294C1130.5 168.059 1131.27 171.47 1132.78 171.171C1137.68 170.414 1142.55 169.251 1147.38 167.687C1151.4 166.892 1155.28 164.774 1158.73 161.491C1159.05 161.096 1159.29 160.576 1159.41 159.994C1159.54 159.412 1159.55 158.793 1159.44 158.213C1159.34 157.633 1159.11 157.117 1158.81 156.727C1158.5 156.338 1158.12 156.092 1157.71 156.021V156.021Z" fill="url(#paint6_linear_1_5)"/>
<path d="M1183.58 209.595C1179.97 213.377 1176.95 218.303 1174.76 224.004L1173.66 226.519C1172.42 219.541 1171.05 212.621 1170.21 205.975C1168.2 190.177 1167.24 173.86 1164.32 158.407C1163.94 156.382 1161.85 157.188 1161.7 159.063C1160.8 176.32 1161.57 193.606 1163.98 210.396C1164.69 226.189 1167.52 241.522 1172.29 255.503C1172.57 256.015 1172.95 256.389 1173.38 256.579C1173.81 256.769 1174.27 256.766 1174.71 256.571C1175.14 256.376 1175.54 255.998 1175.83 255.482C1176.13 254.967 1176.33 254.337 1176.39 253.67C1176.5 247.961 1176.13 242.276 1175.3 236.741C1176.37 233.859 1177.28 230.764 1178.48 228.112C1180.72 223.152 1183.81 219.097 1185.99 214.155C1186.99 211.875 1185.52 207.861 1183.58 209.595Z" fill="url(#paint7_linear_1_5)"/>
<path d="M1168.76 359.156C1157.87 340.762 1133.6 305.405 1144.01 278.276C1144.21 277.829 1144.3 277.287 1144.24 276.763C1144.19 276.238 1144 275.771 1143.72 275.457C1143.43 275.143 1143.07 275.006 1142.72 275.074C1142.36 275.143 1142.03 275.411 1141.8 275.825C1125.35 304.432 1152.27 344.775 1164.25 364.452C1166.65 368.39 1171.14 363.181 1168.76 359.156Z" fill="url(#paint8_linear_1_5)"/>
<path d="M1181.14 256.592C1179.61 256.85 1179.68 259.784 1180.8 260.636C1204.52 278.579 1189.24 322.144 1190.98 352.395C1191.06 353.077 1191.29 353.696 1191.62 354.163C1191.96 354.629 1192.39 354.917 1192.86 354.983C1193.32 355.05 1193.79 354.892 1194.2 354.533C1194.61 354.174 1194.93 353.633 1195.12 352.99C1200.85 332.264 1209.31 251.862 1181.14 256.592Z" fill="url(#paint9_linear_1_5)"/>
<path d="M1180.9 335.547C1177.26 336.759 1173.49 339.414 1169.87 336.734C1166.51 332.977 1163.66 328.303 1161.47 322.949C1157.89 317.954 1155.15 311.777 1153.45 304.886C1151.75 297.996 1151.13 290.572 1151.65 283.179C1151.98 280.807 1149.57 280.573 1149.19 282.841C1148.44 291.599 1149.07 300.437 1151.03 308.647C1153 316.857 1156.24 324.211 1160.49 330.12C1166.8 342.265 1171.49 351.753 1182.61 344.759C1183.32 344.25 1183.89 343.385 1184.22 342.319C1184.55 341.254 1184.62 340.059 1184.41 338.948C1184.21 337.838 1183.74 336.885 1183.1 336.261C1182.45 335.638 1181.67 335.385 1180.9 335.547V335.547Z" fill="url(#paint10_linear_1_5)"/>
<path d="M1195.35 127.52C1192.42 120.526 1183.22 120.012 1178.31 122.899C1171.25 129.602 1165.21 138.478 1160.63 148.903C1160.46 149.256 1160.38 149.684 1160.4 150.109C1160.43 150.535 1160.55 150.93 1160.75 151.225C1160.96 151.519 1161.23 151.693 1161.51 151.716C1161.8 151.739 1162.09 151.609 1162.32 151.349C1166.85 145.361 1171.15 138.624 1175.83 132.943C1181.93 125.55 1187.32 129.914 1193.82 131.561C1195.38 131.958 1196.03 129.134 1195.35 127.52Z" fill="url(#paint11_linear_1_5)"/>
<path d="M1194.21 140.925C1193.2 152.561 1190.98 163.944 1187.65 174.674C1185.17 183.812 1183.41 193.329 1182.43 203.022C1182.29 205.894 1185.12 208.23 1186.3 205.223C1190.01 193.734 1192.78 181.65 1194.55 169.242C1197.16 160.02 1198.02 149.967 1197.03 140.215C1196.97 139.672 1196.76 139.193 1196.47 138.88C1196.17 138.566 1195.79 138.442 1195.43 138.535C1195.06 138.628 1194.73 138.929 1194.5 139.376C1194.27 139.822 1194.17 140.378 1194.21 140.925V140.925Z" fill="url(#paint12_linear_1_5)"/>
<path d="M1192.97 198.563C1191.83 200.351 1193.77 203.176 1194.99 201.502C1200.57 193.754 1207 187.511 1213.99 183.069C1217.4 180.257 1221.36 179.451 1225.07 180.816C1228.52 182.883 1230.22 188.533 1232.52 192.394C1232.92 193.097 1233.47 193.56 1234.08 193.702C1234.7 193.844 1235.33 193.654 1235.87 193.167C1236.41 192.68 1236.83 191.928 1237.03 191.046C1237.24 190.164 1237.23 189.209 1237.01 188.354C1227.58 155.965 1203.93 181.313 1192.97 198.563Z" fill="url(#paint13_linear_1_5)"/>
<path d="M1233.93 198.245C1219.56 214.474 1205.63 232.305 1191.49 249.056C1188.7 252.364 1191.85 257.848 1194.72 255.202C1210.48 240.949 1224.47 222.7 1236.05 201.316C1236.26 200.873 1236.36 200.336 1236.34 199.801C1236.31 199.267 1236.15 198.77 1235.9 198.4C1235.64 198.03 1235.31 197.811 1234.95 197.782C1234.59 197.754 1234.23 197.918 1233.93 198.245Z" fill="url(#paint14_linear_1_5)"/>
<path d="M1246.57 235.824C1243.72 227.855 1238.3 228.513 1232.99 231.292C1222.81 236.801 1213.45 245.302 1205.48 256.268C1204.66 257.419 1205.37 259.774 1206.53 258.898C1215.16 252.352 1234.21 230.177 1243.42 239.513C1244.96 241.084 1247.57 238.62 1246.57 235.824Z" fill="url(#paint15_linear_1_5)"/>
<path d="M1252.08 243.018C1251.95 242.622 1251.74 242.308 1251.47 242.133C1251.2 241.958 1250.9 241.932 1250.61 242.061C1250.33 242.19 1250.08 242.464 1249.91 242.835C1249.74 243.207 1249.67 243.65 1249.7 244.086C1249.68 247.824 1249.98 251.536 1250.61 255.127C1248.91 258.928 1246.65 262.103 1243.99 264.39C1240.08 268.266 1235.97 271.661 1231.7 274.539C1224.06 280.21 1215.95 284.52 1208.45 290.555C1205.87 292.629 1206.64 299.466 1209.88 298.268C1222 292.68 1233.4 283.905 1243.54 272.367C1253.72 262.038 1257.65 260.329 1252.08 243.018Z" fill="url(#paint16_linear_1_5)"/>
<path d="M1239.32 309.364C1237.07 304.258 1231.68 303.81 1227.84 303.914C1222.22 304.415 1216.71 306.648 1211.64 310.47C1211.31 310.709 1211.03 311.115 1210.88 311.617C1210.72 312.118 1210.69 312.681 1210.79 313.204C1210.88 313.727 1211.1 314.175 1211.41 314.469C1211.71 314.762 1212.08 314.881 1212.45 314.805C1217.42 313.268 1222.47 312.426 1227.52 312.288C1230.93 313.38 1234.37 314.203 1237.85 314.757C1239.68 314.561 1240.14 311.222 1239.32 309.364Z" fill="url(#paint17_linear_1_5)"/>
<path d="M1238.94 317.169C1238.76 316.975 1238.53 316.868 1238.3 316.86C1238.07 316.852 1237.84 316.944 1237.64 317.125C1237.44 317.305 1237.28 317.566 1237.18 317.876C1237.07 318.187 1237.03 318.532 1237.06 318.872C1238.28 343.216 1214.39 345.181 1202.43 344.318C1199.23 344.087 1197.62 351.305 1200.94 352.845C1211.94 355.708 1223.39 352.304 1233.02 343.305C1239.29 338.235 1246.24 326.369 1238.94 317.169Z" fill="url(#paint18_linear_1_5)"/>
<path d="M1139.28 333.093C1127.7 351.536 1112.58 364.269 1096.1 369.481C1094.1 370.009 1093.96 375.002 1096.13 374.93C1105.27 375.129 1114.35 371.868 1122.53 365.455C1130.71 359.042 1137.71 349.689 1142.86 338.284C1144.19 334.885 1141.66 329.82 1139.28 333.093Z" fill="url(#paint19_linear_1_5)"/>
<path d="M1174.64 247.318C1175.2 250.309 1176.23 253.038 1177.65 255.284C1179.07 257.53 1180.83 259.229 1182.8 260.241C1187.03 259.013 1190.81 255.345 1193.31 250.04C1196.09 245.22 1198.61 240.09 1200.86 234.698L1201.17 233.764C1202.58 230.778 1197.19 221.111 1194.99 220.049C1190.12 217.699 1184.75 223.77 1181.34 228.532C1177.69 233.454 1175.31 240.124 1174.64 247.318V247.318Z" fill="url(#paint20_linear_1_5)"/>
<path d="M1196.08 325.183C1195.13 327.33 1194.52 329.771 1194.3 332.304C1194.09 334.837 1194.28 337.392 1194.86 339.76C1196.99 343.563 1201.32 343.858 1204.45 343.924C1207.87 343.864 1211.29 343.4 1214.67 342.538L1215.22 342.308C1217.18 341.991 1218.45 331.739 1217.77 329.126C1216.27 323.35 1211.02 321.692 1207.3 321.132C1203.4 320.44 1199.41 321.878 1196.08 325.183V325.183Z" fill="url(#paint21_linear_1_5)"/>
<path d="M1168.43 208.413C1169.89 210.285 1171.63 211.601 1173.53 212.254C1175.42 212.908 1177.4 212.88 1179.31 212.173C1182.59 208.999 1183.6 201.704 1184.22 196.401C1184.8 190.606 1185.07 184.765 1185.03 178.934L1184.95 177.978C1185.07 174.624 1177.49 171.279 1175.38 172.125C1170.71 173.995 1168.49 182.709 1167.39 188.938C1166.15 195.474 1166.52 202.388 1168.43 208.413V208.413Z" fill="url(#paint22_linear_1_5)"/>
<path d="M1052.58 350.32C1054.52 353.254 1056.91 355.447 1059.56 356.721C1066.28 357.879 1072.21 348.042 1075.82 340.633C1079.71 332.921 1081.65 323.454 1081.28 313.967C1080.31 310.206 1078.51 307.074 1076.17 305.068C1069.57 321.501 1061.64 336.702 1052.58 350.32Z" fill="url(#paint23_linear_1_5)"/>
<path d="M1153.21 225.107C1152.87 222.266 1152.08 219.606 1150.91 217.343C1149.73 215.08 1148.21 213.28 1146.46 212.088C1142.49 212.675 1138.79 215.579 1136.18 220.163C1133.34 224.265 1130.72 228.685 1128.34 233.383L1128 234.218C1126.52 236.797 1130.93 246.443 1132.89 247.712C1137.23 250.518 1142.53 245.597 1145.95 241.633C1149.6 237.549 1152.18 231.681 1153.21 225.107V225.107Z" fill="url(#paint24_linear_1_5)"/>
<path d="M1196.67 277.407C1196.55 280.388 1196.91 283.348 1197.71 286.045C1198.51 288.742 1199.73 291.099 1201.28 292.926C1205.31 293.755 1209.45 292.157 1212.79 288.48C1216.26 285.37 1219.58 281.86 1222.7 277.985L1223.17 277.268C1225.05 275.203 1222.23 263.919 1220.49 261.939C1216.63 257.561 1210.58 260.615 1206.54 263.38C1202.26 266.182 1198.76 271.163 1196.67 277.407V277.407Z" fill="url(#paint25_linear_1_5)"/>
<path d="M1200.3 369.755C1200.68 367.086 1200.62 364.339 1200.12 361.751C1199.63 359.162 1198.72 356.81 1197.46 354.897C1194.34 353.18 1190.05 356.711 1186.98 359.409C1183.64 362.51 1180.45 365.955 1177.42 369.718L1176.95 370.419C1175.13 372.441 1176.72 383.259 1178.1 385.133C1181.16 389.273 1186.73 386.211 1190.5 383.468C1194.62 380.501 1198.05 375.704 1200.3 369.755V369.755Z" fill="url(#paint26_linear_1_5)"/>
<defs>
<linearGradient id="paint0_linear_1_5" x1="0" y1="212.668" x2="992.261" y2="212.668" gradientUnits="userSpaceOnUse">
<stop/>
<stop offset="0.5" stop-color="#CBB26A"/>
<stop offset="1" stop-color="#CBB26A"/>
</linearGradient>
<linearGradient id="paint1_linear_1_5" x1="974.358" y1="358.71" x2="1079.82" y2="339.944" gradientUnits="userSpaceOnUse">
<stop/>
<stop offset="0.5" stop-color="#CBB26A"/>
<stop offset="1"/>
</linearGradient>
<linearGradient id="paint2_linear_1_5" x1="1024.95" y1="351.659" x2="1086.12" y2="340.808" gradientUnits="userSpaceOnUse">
<stop/>
<stop offset="0.5" stop-color="#CBB26A"/>
<stop offset="1"/>
</linearGradient>
<linearGradient id="paint3_linear_1_5" x1="1005.79" y1="436.324" x2="1198.57" y2="401.364" gradientUnits="userSpaceOnUse">
<stop/>
<stop offset="0.5" stop-color="#CBB26A"/>
<stop offset="1"/>
</linearGradient>
<linearGradient id="paint4_linear_1_5" x1="997.934" y1="462.635" x2="1202.1" y2="426.325" gradientUnits="userSpaceOnUse">
<stop/>
<stop offset="0.5" stop-color="#CBB26A"/>
<stop offset="1"/>
</linearGradient>
<linearGradient id="paint5_linear_1_5" x1="1060.89" y1="199.502" x2="1140.89" y2="185.321" gradientUnits="userSpaceOnUse">
<stop/>
<stop offset="0.5" stop-color="#CBB26A"/>
<stop offset="1"/>
</linearGradient>
<linearGradient id="paint6_linear_1_5" x1="1130.64" y1="166.166" x2="1159.93" y2="160.916" gradientUnits="userSpaceOnUse">
<stop/>
<stop offset="0.5" stop-color="#CBB26A"/>
<stop offset="1"/>
</linearGradient>
<linearGradient id="paint7_linear_1_5" x1="1153.73" y1="161.241" x2="1176.57" y2="157.18" gradientUnits="userSpaceOnUse">
<stop/>
<stop offset="0.5" stop-color="#CBB26A"/>
<stop offset="1"/>
</linearGradient>
<linearGradient id="paint8_linear_1_5" x1="1132.71" y1="279.379" x2="1154.2" y2="275.555" gradientUnits="userSpaceOnUse">
<stop/>
<stop offset="0.5" stop-color="#CBB26A"/>
<stop offset="1"/>
</linearGradient>
<linearGradient id="paint9_linear_1_5" x1="1174.43" y1="259.455" x2="1195.23" y2="255.753" gradientUnits="userSpaceOnUse">
<stop/>
<stop offset="0.5" stop-color="#CBB26A"/>
<stop offset="1"/>
</linearGradient>
<linearGradient id="paint10_linear_1_5" x1="1146.35" y1="283.005" x2="1173.63" y2="278.166" gradientUnits="userSpaceOnUse">
<stop/>
<stop offset="0.5" stop-color="#CBB26A"/>
<stop offset="1"/>
</linearGradient>
<linearGradient id="paint11_linear_1_5" x1="1157.15" y1="131.959" x2="1195.02" y2="125.209" gradientUnits="userSpaceOnUse">
<stop/>
<stop offset="0.5" stop-color="#CBB26A"/>
<stop offset="1"/>
</linearGradient>
<linearGradient id="paint12_linear_1_5" x1="1172.64" y1="148.425" x2="1197.7" y2="143.982" gradientUnits="userSpaceOnUse">
<stop/>
<stop offset="0.5" stop-color="#CBB26A"/>
<stop offset="1"/>
</linearGradient>
<linearGradient id="paint13_linear_1_5" x1="1190.08" y1="185.785" x2="1235.14" y2="177.757" gradientUnits="userSpaceOnUse">
<stop/>
<stop offset="0.5" stop-color="#CBB26A"/>
<stop offset="1"/>
</linearGradient>
<linearGradient id="paint14_linear_1_5" x1="1184.54" y1="219.488" x2="1238.17" y2="209.949" gradientUnits="userSpaceOnUse">
<stop/>
<stop offset="0.5" stop-color="#CBB26A"/>
<stop offset="1"/>
</linearGradient>
<linearGradient id="paint15_linear_1_5" x1="1202.71" y1="244.228" x2="1246.72" y2="236.352" gradientUnits="userSpaceOnUse">
<stop/>
<stop offset="0.5" stop-color="#CBB26A"/>
<stop offset="1"/>
</linearGradient>
<linearGradient id="paint16_linear_1_5" x1="1201.25" y1="263.436" x2="1254.7" y2="253.926" gradientUnits="userSpaceOnUse">
<stop/>
<stop offset="0.5" stop-color="#CBB26A"/>
<stop offset="1"/>
</linearGradient>
<linearGradient id="paint17_linear_1_5" x1="1210.21" y1="309.968" x2="1238.65" y2="304.9" gradientUnits="userSpaceOnUse">
<stop/>
<stop offset="0.5" stop-color="#CBB26A"/>
<stop offset="1"/>
</linearGradient>
<linearGradient id="paint18_linear_1_5" x1="1196.44" y1="334.863" x2="1242.41" y2="326.671" gradientUnits="userSpaceOnUse">
<stop/>
<stop offset="0.5" stop-color="#CBB26A"/>
<stop offset="1"/>
</linearGradient>
<linearGradient id="paint19_linear_1_5" x1="1091.07" y1="353.409" x2="1144.69" y2="343.841" gradientUnits="userSpaceOnUse">
<stop/>
<stop offset="0.5" stop-color="#CBB26A"/>
<stop offset="1"/>
</linearGradient>
<linearGradient id="paint20_linear_1_5" x1="1171.27" y1="228.309" x2="1199.85" y2="223.241" gradientUnits="userSpaceOnUse">
<stop/>
<stop offset="0.5" stop-color="#CBB26A"/>
<stop offset="1"/>
</linearGradient>
<linearGradient id="paint21_linear_1_5" x1="1192.31" y1="325.616" x2="1216.4" y2="321.34" gradientUnits="userSpaceOnUse">
<stop/>
<stop offset="0.5" stop-color="#CBB26A"/>
<stop offset="1"/>
</linearGradient>
<linearGradient id="paint22_linear_1_5" x1="1162.66" y1="177.657" x2="1184.27" y2="173.827" gradientUnits="userSpaceOnUse">
<stop/>
<stop offset="0.5" stop-color="#CBB26A"/>
<stop offset="1"/>
</linearGradient>
<linearGradient id="paint23_linear_1_5" x1="1046.82" y1="317.833" x2="1080.9" y2="311.79" gradientUnits="userSpaceOnUse">
<stop/>
<stop offset="0.5" stop-color="#CBB26A"/>
<stop offset="1"/>
</linearGradient>
<linearGradient id="paint24_linear_1_5" x1="1124.99" y1="221.018" x2="1151.69" y2="216.282" gradientUnits="userSpaceOnUse">
<stop/>
<stop offset="0.5" stop-color="#CBB26A"/>
<stop offset="1"/>
</linearGradient>
<linearGradient id="paint25_linear_1_5" x1="1194.36" y1="268.072" x2="1222.07" y2="263.156" gradientUnits="userSpaceOnUse">
<stop/>
<stop offset="0.5" stop-color="#CBB26A"/>
<stop offset="1"/>
</linearGradient>
<linearGradient id="paint26_linear_1_5" x1="1173.69" y1="363.487" x2="1199.62" y2="358.886" gradientUnits="userSpaceOnUse">
<stop/>
<stop offset="0.5" stop-color="#CBB26A"/>
<stop offset="1"/>
</linearGradient>
</defs>
</svg>
