<svg width="429" height="436" viewBox="0 0 429 436" fill="none" xmlns="http://www.w3.org/2000/svg">
<g clip-path="url(#clip0_1_5)">
<path d="M52.1979 356.951C56.4691 361.961 60.975 366.767 65.7005 371.352C81.6289 387.029 100.624 400.207 121.001 410.173C128.509 413.689 135.434 417.331 143.548 420.466C145.575 421.245 147.647 422.079 149.824 422.83C152.019 423.526 154.295 424.221 156.675 424.91C159.041 425.65 161.564 426.175 164.202 426.721C166.842 427.251 169.583 427.857 172.528 428.159C157.922 425.08 143.685 420.454 130.059 414.359C116.348 408.174 103.321 400.575 91.1874 391.685C66.8869 373.884 46.1021 351.028 30.9201 324.9C30.2934 324.119 29.342 322.631 28.2016 320.735L26.3678 317.629L24.5178 314.056C23.2876 311.577 21.8708 309.062 20.7857 306.624C19.8127 304.492 18.7942 302.382 17.7308 300.293C22.449 312.045 27.8952 322.325 33.9933 332.1C36.8022 336.582 39.7754 340.96 42.9067 345.224C42.4644 344.628 42.0036 344.047 41.5636 343.448C44.9192 348.07 48.4544 352.559 52.1611 356.905L52.1979 356.951ZM41.559 343.446L41.271 343.054L41.559 343.446ZM3.07639 244.3L1.96365 235.372C2.55343 240.821 3.23765 246.91 4.48861 253.006L3.73527 248.677C3.45721 247.227 3.2374 245.767 3.07639 244.3ZM197.694 427.527C213.019 429.078 229.09 428.615 244.832 426.124C260.583 423.643 275.989 419.243 290.311 413.571C263.933 423.945 235.937 428.56 208.55 427.788C204.884 427.73 201.272 427.788 197.694 427.527Z" fill="url(#paint0_linear_1_5)"/>
<path d="M106.957 396.177L106.36 395.797C106.561 395.924 106.756 396.053 106.957 396.177ZM129.191 408.427C141.819 414.302 155.045 418.795 168.639 421.826C146.32 416.734 125.316 407.752 106.957 396.177C114.006 400.663 121.418 404.814 129.191 408.427ZM407.777 246.723C408.003 243.083 408.459 239.263 408.575 237.446C409.943 225.763 410.348 215.788 410.291 205.78C410.037 203.976 409.312 200.597 409.024 196.754C408.671 192.902 408.153 189.131 407.715 185.41C407.049 181.722 406.476 178.07 405.748 174.49C410.989 201.253 410.901 228.12 406.079 253.469C406.61 251.211 407.176 248.963 407.777 246.723Z" fill="url(#paint1_linear_1_5)"/>
<path d="M2.04429 192.326C3.9979 176.43 8.15626 160.934 12.1119 150.611L10.5107 158.168C11.4991 155.954 13.0956 150.809 15.2727 145.365L16.8439 141.214L18.5786 137.189C19.7305 134.584 20.6981 132.114 21.7187 130.22C21.0207 131.996 20.3479 133.911 19.537 135.832C18.7422 137.76 17.8506 139.719 17.0005 141.688L20.4885 133.835C16.9692 142.651 13.9397 151.655 11.4138 160.805C8.80362 170.832 6.73942 181.369 5.62899 190.828C5.30646 193.188 5.19358 195.491 4.98393 197.689C4.82958 199.887 4.56234 201.983 4.5416 203.965C4.44484 207.925 4.31122 211.392 4.37803 214.166C4.61993 219.716 4.95398 222.483 5.43547 220.937C6.38233 217.866 6.3639 202.073 9.66755 182.309C11.4346 172.458 13.971 161.653 17.4129 151.067C20.8294 140.472 25.308 130.199 29.9456 121.136L28.5817 124.113L27.3261 127.179L24.7551 133.379L22.396 139.783L21.1957 143.013C20.8433 144.11 20.4862 145.211 20.1337 146.317C17.0927 155.087 14.8188 164.323 12.8376 173.633L11.5497 180.664C11.0775 183 10.877 185.378 10.5269 187.73C9.79426 192.432 9.52702 197.169 9.11924 201.85C8.66079 211.235 8.56864 220.506 9.41874 229.371C9.38418 227.265 9.34962 225.395 9.37957 223.584L9.64451 218.158C9.75509 216.295 9.73436 214.318 9.90945 212.053C10.0707 209.789 10.2182 207.236 10.3472 204.216C11.248 188.992 13.9687 173.921 18.1985 159.336C22.2301 144.688 26.9852 131.789 34.0694 120.102L35.9147 116.586C37.1634 114.227 38.2024 111.9 39.5224 109.527C41.0268 106.924 42.4667 104.975 43.6324 103.19C44.8327 101.423 45.851 99.87 47.0167 98.3633L55.4993 86.6554C55.6721 86.6347 55.4486 87.0816 55.0385 87.7451C56.4371 85.752 57.9437 83.837 59.5517 82.0086C61.291 79.9928 62.9797 77.8549 64.4104 76.0902C64.7467 76.0741 65.0738 76.0648 65.8456 75.5119C85.7735 54.3239 110.297 37.057 137.934 26.1715L144.078 23.7779L150.298 21.7068L153.392 20.6747L156.525 19.7992L162.769 18.0645C166.34 17.2051 169.956 16.3343 173.645 15.551L179.259 14.5696C181.146 14.2448 183.042 13.8785 184.982 13.6988C188.838 13.2357 192.202 12.2589 194.015 12.0193C204.08 11.4457 214.127 11.5608 225.92 12.5169C226.835 12.533 228.259 12.616 229.91 12.7058C231.562 12.8003 233.451 12.8464 235.283 13.0145C237.43 13.4983 239.722 13.9775 242.128 14.4452C256.8 16.7214 270.987 20.7899 284.485 26.2015L284.469 26.137L289.639 28.1966L294.914 30.634C298.534 32.2098 302.079 34.2256 305.742 36.1239C307.581 37.0616 309.322 38.2066 311.129 39.2433C312.902 40.3353 314.759 41.3029 316.473 42.4962C319.947 44.8046 323.47 47.014 326.716 49.4813C331.95 53.2581 337.023 57.2533 341.921 61.4565C342.027 61.5532 342.138 61.6431 342.244 61.7375L342.34 61.8251L345.697 64.8707L348.908 68.0753L352.122 71.2822C353.187 72.358 354.173 73.5099 355.202 74.6204C354.705 73.814 354.723 73.4892 354.742 73.169C353.154 71.6485 351.277 69.8492 349.422 68.0776C352.516 70.8928 355.216 73.4385 357.433 75.5165C358.287 76.6085 359.22 77.6821 360.105 78.8547L362.837 82.4625L365.742 86.2154L368.634 90.2516C373.762 96.7898 378.289 103.784 382.588 110.917C384.578 114.575 386.774 118.13 388.545 121.915L391.34 127.527L393.856 133.28C394.579 134.508 394.298 133.33 394.388 133.123C397.21 139.947 399.479 147.043 401.534 154.193C405.462 167.117 408.092 180.399 409.385 193.844C409.904 197.019 410.125 200.23 410.583 203.412L410.3 210.148C410.298 212.689 410.431 215.23 410.323 217.776L410.028 225.438C409.991 227.166 409.743 229.053 409.597 231.103C409.404 233.149 409.302 235.356 409.008 237.683L408.058 245.037C407.754 247.615 407.167 250.264 406.715 253.033C404.467 265.193 401.142 277.129 396.781 288.701C396.224 290.604 395.798 292.124 395.417 292.974C393.973 296.432 392.432 299.78 390.944 303.076C389.278 306.288 387.75 309.499 386.043 312.54C380.764 322.552 374.637 332.093 367.73 341.059C366.956 342.07 366.235 343.098 365.457 344.047L363.157 346.825C361.637 348.62 360.278 350.415 358.836 351.972C355.953 355.087 353.535 357.976 351.265 360.148C348.667 362.862 348.899 362.989 350.699 361.68C351.961 360.747 353.197 359.778 354.403 358.773L359.292 354.363C361.079 352.804 362.791 351.044 364.441 349.385C366.072 347.715 367.703 346.192 368.961 344.814C371.497 342.07 373.163 340.377 372.808 341.13C368.714 348.837 361.259 358.342 350.362 368.857C344.803 373.987 338.548 379.562 331.151 384.937C327.543 387.75 323.532 390.323 319.443 393.134C315.218 395.721 310.9 398.555 306.18 401.071C295.85 406.696 313.932 397.672 314.421 397.587C312.677 398.961 310.848 400.223 308.945 401.365C305.54 403.176 302.164 405.045 298.637 406.602C296.575 407.549 294.55 408.572 292.465 409.456L286.178 412.041L289.505 410.733C296.306 408.03 302.662 404.847 308.401 401.697C306.244 403.001 303.885 404.51 301.301 405.872C298.529 407.305 295.661 408.871 292.783 410.27L284.432 414.154C314.308 403.301 341.762 385.34 363.496 361.927C374.377 350.256 384.081 337.435 391.992 323.566C399.952 309.726 406.356 295.046 411.086 279.796C403.819 302.673 392.492 323.688 378.876 341.458C403.628 308.036 418.386 267.061 420.342 224.803C420.34 227.132 420.11 229.452 419.955 231.772C419.764 234.091 419.672 236.421 419.4 238.734C418.808 243.353 418.384 247.997 417.495 252.577C416.057 261.792 413.726 270.849 411.086 279.796C416.297 263.621 419.409 246.567 420.635 229.415C421.911 212.249 420.847 194.98 418.2 178.245C422.747 200.412 423.501 225.528 419.626 250.349C422.349 234.34 423.04 217.838 421.994 201.477C421.759 195.226 421.022 189.02 420.416 183.274C419.548 177.57 418.891 172.304 418.05 168.044C421.379 183.77 422.692 197.182 423.333 209.826C422.717 182.233 417.002 154.276 405.778 128.015C411.903 142.278 416.933 157.622 420.004 173.396C423.091 189.154 424.374 205.276 423.644 220.785C423.609 218.969 423.685 217.156 423.579 215.334L423.333 209.826C423.994 234.822 420.144 259.597 412.514 282.895C408.685 294.543 403.955 305.862 398.23 316.632C392.517 327.386 385.921 337.647 378.51 347.309C386.972 337.426 395.906 323.456 403.036 308.11C410.134 292.732 415.403 276.101 419.027 261.576C413.696 287.659 403.114 313.397 387.762 336.382C372.451 359.386 352.396 379.611 329.193 395.134C306.016 410.705 279.721 421.482 252.736 426.806C239.338 429.467 225.718 430.862 212.058 430.974C198.647 431.045 185.258 429.877 172.062 427.484L178.985 428.799C181.293 429.237 183.634 429.479 185.956 429.824C190.601 430.571 195.298 430.852 199.98 431.283C209.363 431.81 218.797 431.988 228.201 431.271C237.621 430.771 246.982 429.366 256.298 427.65C260.92 426.599 265.596 425.74 270.16 424.392C272.45 423.751 274.768 423.192 277.042 422.48L283.849 420.273C280.412 421.337 276.795 422.747 272.932 423.781L268.091 425.205C278.249 422.497 288.191 419.035 297.833 414.847C302.244 412.923 306.587 410.844 310.852 408.616C302.86 412.855 294.617 416.603 286.169 419.84C270.06 425.852 253.319 430.011 236.269 432.239C233.712 432.644 231.38 432.771 229.291 432.99L223.697 433.543C220.405 433.803 217.975 433.92 216.274 434.107C212.872 434.446 212.388 434.761 213.742 435.022C215.095 435.282 218.283 435.489 222.204 435.6C226.114 435.577 230.751 435.367 234.97 434.982C277.353 430.635 316.266 414.002 347.45 389.1C378.655 364.194 402.555 331.109 415.875 293.569C416.712 291.389 417.354 289.141 418.05 286.911C418.725 284.674 419.471 282.46 420.082 280.202C421.213 275.663 422.552 271.178 423.418 266.57L424.844 259.694L425.966 252.755L426.521 249.283L426.917 245.788L427.705 238.798C429.313 220.105 428.677 201.212 425.835 182.671C424.314 172.179 421.642 159.723 418.197 148.628L415.548 140.601C414.627 138.051 413.647 135.646 412.777 133.383L411.493 130.123L410.178 127.195L407.918 122.302C400.698 107.652 391.625 93.6797 381.005 80.6839C370.396 67.6836 358.207 55.6463 344.464 45.164L339.295 41.2407L333.934 37.5362L331.248 35.6793L328.476 33.9376L322.908 30.4635C315.317 26.0771 307.541 21.8496 299.345 18.3432C291.233 14.6618 282.743 11.6737 274.102 9.00133C269.736 7.80336 265.391 6.46715 260.915 5.54794C258.685 5.06645 256.473 4.48128 254.218 4.07812L247.435 2.87784C231.217 0.0234359 214.346 -0.656184 197.491 0.610904C180.646 1.91255 163.729 5.11022 147.508 10.6301L141.438 12.7335C139.408 13.4177 137.452 14.3047 135.455 15.081C133.478 15.9081 131.458 16.6315 129.518 17.5438L123.685 20.2462C121.722 21.1124 119.826 22.1076 117.934 23.1144L112.246 26.1024L106.713 29.3554C104.87 30.4428 103.013 31.5048 101.248 32.7143L95.894 36.2345C94.0925 37.3795 92.4245 38.718 90.6851 39.9482C88.978 41.2245 87.2064 42.4133 85.5569 43.7587L80.5876 47.7604C78.9081 49.062 77.3231 50.4743 75.7427 51.8888L70.99 56.1048L66.4492 60.5257C64.9379 61.9979 63.4105 63.4539 62.0029 65.0204C50.4125 77.226 40.2297 90.5419 31.9015 104.632C23.7347 118.454 17.0423 133.096 11.9345 148.316C1.85537 178.082 -1.03589 208.268 0.309527 235.534C0.0192487 224.31 -0.029131 208.213 2.04429 192.326ZM327.184 400.695C334.184 396.17 340.926 391.256 347.376 385.976C340.834 391.365 334.111 396.341 327.184 400.695ZM419.835 275.64C419.147 277.716 418.564 279.767 417.804 281.725L415.599 287.537L414.525 290.412L413.343 293.248C412.554 295.159 411.788 297.08 411.046 299.01C406.781 309.634 401.708 319.916 395.871 329.766C390.063 339.615 383.332 348.844 376.139 357.503C372.587 361.878 368.717 365.935 364.911 369.992L358.965 375.805C357.013 377.758 354.878 379.5 352.855 381.343C351.159 382.818 349.45 384.26 347.729 385.679C354.121 380.429 360.195 374.804 365.92 368.834C357.637 377.419 348.627 385.272 338.991 392.305C336.604 393.968 334.298 395.751 331.819 397.318L324.338 402.084L316.436 406.574C313.748 408.067 310.91 409.394 308.064 410.848C310.102 409.647 312.164 408.489 314.25 407.374C316.602 406.068 319.07 404.524 321.479 403.112C323.908 401.727 326.115 400.207 327.949 398.935C329.782 397.663 331.22 396.608 331.969 395.926C330.9 396.652 329.812 397.348 328.73 398.055C329.894 397.287 331.052 396.507 332.201 395.717C332.153 395.77 332.052 395.852 331.969 395.926C357.154 378.726 378.609 356.124 394.685 330.356C410.832 304.611 421.34 275.569 425.694 246.034C424.749 257.88 422.579 267.34 419.835 275.64ZM385.044 95.8291C391.977 106.3 397.969 117.365 402.951 128.893C403.527 130.158 404.071 131.441 404.607 132.727C416.041 160.727 421.243 190.764 420.481 220.354C420.674 210.563 420.024 200.776 418.939 191.073C417.711 179.89 415.442 168.841 412.433 158.034C406.531 136.362 396.945 115.821 384.776 97.0962C385.894 98.6397 387.071 100.312 388.29 102.086C389.594 103.922 390.817 105.815 391.953 107.76L390.483 105.206L388.895 102.72L385.721 97.7528C383.56 94.4722 381.217 91.3114 378.962 88.0953C376.515 85.022 374.195 81.8474 371.649 78.8547C369.723 76.6592 367.878 74.39 365.924 72.2221C372.817 79.4906 379.289 87.2889 385.044 95.8291ZM223.206 2.65437C226.586 2.83407 229.973 3.16351 233.359 3.41693C236.133 3.64961 238.893 4.05969 241.625 4.3684C242.445 4.40295 243.312 4.45824 244.399 4.58035C245.484 4.73009 246.781 5.00885 248.474 5.39589C261.074 7.49695 272.57 10.6555 280.73 13.9176C296.391 19.8453 310.963 27.2198 324.18 35.7369C337.401 44.2379 349.266 53.9069 359.303 64.4675C363.929 69.4875 362.579 68.3932 360.029 65.9558L363.858 70.0197C362.162 68.3287 360.497 66.6147 358.776 64.9605L353.475 60.1456C354.765 61.2745 357.893 63.9768 360.029 65.9558C343.006 48.5875 323.108 34.1657 301.57 23.5567C280.016 12.9523 256.805 6.40265 233.603 3.78784C237.331 4.20252 239.16 4.29467 240.902 4.34075C238.402 4.04817 235.896 3.64731 233.359 3.41693C229.952 3.19346 226.552 2.88936 223.17 2.72349L213.125 2.48619C216.452 2.48389 219.822 2.57604 223.206 2.65437Z" fill="url(#paint2_linear_1_5)"/>
<path d="M267.108 425.489L268.089 425.201C267.062 425.477 266.05 425.781 265.016 426.044C265.716 425.869 266.419 425.698 267.108 425.489ZM369.585 336.703C379.342 323.831 387.962 308.451 393.466 295.202L393.399 295.216C379.436 328.211 356.787 356.635 328.525 377.563C333.543 374.075 338.473 370.462 343.31 366.728C349.526 360.231 359.928 349.666 369.585 336.703ZM81.44 375.164C97.9629 389.936 117.888 402.792 140.067 411.452C148.715 414.707 157.541 417.559 166.568 419.568C171.046 420.724 175.619 421.438 180.158 422.289C182.432 422.692 184.735 422.915 187.021 423.238C189.311 423.535 191.596 423.871 193.902 424.005C183.491 422.851 173.156 421.123 163.096 418.384C153.042 415.654 143.186 412.279 133.679 408.134C124.22 403.923 115.065 399.063 106.277 393.588C97.5551 388.04 89.2845 381.845 81.44 375.164ZM285.388 401.499L280.276 403.506L275.056 405.247C271.6 406.491 268.036 407.422 264.481 408.411C268.054 407.512 271.648 406.673 275.134 405.522L280.394 403.914L285.531 402.036C285.333 401.935 284.163 402.163 285.388 401.499ZM225.043 414.603C222.37 414.831 219.684 414.81 216.993 414.838C214.302 414.87 211.607 414.928 208.909 414.751L212.54 415.092C213.65 415.163 214.65 415.248 215.523 415.352C218.705 415.08 221.863 415.004 225.043 414.603ZM118.51 389.824C121.6 391.637 124.88 393.233 128.136 394.993C128.951 395.44 130.43 395.949 132.285 396.627C128.32 394.924 124.521 392.814 120.66 390.856C118.748 389.84 116.907 388.702 115.032 387.642C113.161 386.573 111.297 385.506 109.528 384.313L111.687 385.755L113.937 387.1L118.51 389.824Z" fill="url(#paint3_linear_1_5)"/>
<path d="M197.88 153.128C195.159 155.149 192.318 157.003 189.372 158.679C186.52 160.013 183.6 161.198 180.624 162.227C173.45 164.858 166.455 167.722 159.403 170.629C158.772 170.89 159.175 171.794 159.805 171.593C167.651 169.091 175.428 166.601 183.162 163.727C189.271 162.218 194.79 158.915 199.007 154.244C199.116 154.088 199.167 153.899 199.15 153.71C199.134 153.521 199.05 153.343 198.915 153.209C198.78 153.076 198.602 152.994 198.412 152.979C198.223 152.964 198.034 153.017 197.88 153.128Z" fill="url(#paint4_linear_1_5)"/>
<path d="M201.045 156.874C200.85 156.287 200.043 156.602 200.068 157.141C200.309 162.251 195.21 165.481 191.52 168.035C187.744 170.65 183.49 172.497 179.001 173.473C178.115 173.677 177.958 175.179 179.02 175.198C184.967 174.841 190.608 172.439 194.989 168.4C198.654 165.5 202.73 161.969 201.045 156.874Z" fill="url(#paint5_linear_1_5)"/>
<path d="M238.625 175.826C232.897 175.249 227.125 175.279 221.403 175.916C214.916 176.148 208.421 176.124 201.932 176.037C189.888 175.706 177.836 176.096 165.84 177.204C165.192 177.272 165.346 178.225 165.979 178.192C178.523 177.529 191.283 178.377 203.843 178.505C215.504 178.624 227.013 177.26 238.638 177.103C239.403 177.093 239.304 175.948 238.625 175.826Z" fill="url(#paint6_linear_1_5)"/>
<path d="M237.744 180.401C233.594 181.376 229.515 182.63 225.534 184.153C220.951 185.549 216.367 186.949 211.726 188.142C202.765 190.353 193.658 191.926 184.474 192.849C183.79 192.925 183.964 193.9 184.618 193.883C194.096 193.786 203.529 192.57 212.722 190.261C216.504 189.267 220.243 188.133 223.95 186.89C222.926 187.699 221.947 188.563 221.018 189.479C218.553 191.882 216.598 195.818 213.345 197.163C209.46 198.384 205.491 199.316 201.469 199.953C197.319 200.962 193.225 202.185 189.055 203.115C188.419 203.257 188.55 204.261 189.197 204.126C193.587 203.206 198.034 202.61 202.435 201.754C204.359 201.38 206.405 201.086 208.426 200.707C206.649 202.186 204.955 203.816 203.064 205.093C198.799 207.769 194.099 209.676 189.175 210.726C179.738 212.82 170.412 215.385 161.233 218.415C161.116 218.465 161.021 218.556 160.966 218.671C160.911 218.786 160.899 218.917 160.932 219.039C160.966 219.162 161.043 219.269 161.149 219.34C161.255 219.41 161.383 219.44 161.509 219.424C172.007 217.601 182.392 215.181 192.615 212.175C196.447 211.251 200.109 209.726 203.465 207.658C207.102 205.583 210.321 202.852 212.96 199.602C213.375 199.468 213.786 199.329 214.185 199.173C216.662 197.845 218.749 195.893 220.237 193.509C222.795 190.448 226.006 188.242 228.746 185.429L228.814 185.327C232.018 184.411 235.123 183.177 238.082 181.644C238.683 181.307 238.53 180.274 237.744 180.401Z" fill="url(#paint7_linear_1_5)"/>
<path d="M231.891 141.495C232.354 135.273 231.329 129.031 228.903 123.283C228.843 123.154 228.736 123.054 228.603 123.002C228.47 122.951 228.323 122.953 228.191 123.007C228.06 123.062 227.955 123.166 227.898 123.296C227.841 123.427 227.837 123.574 227.887 123.708C228.448 125.792 228.827 127.921 229.019 130.071C226.387 131.639 223.621 132.969 220.754 134.046C220.338 134.205 220.516 134.922 220.964 134.812C223.798 134.097 226.544 133.068 229.15 131.743C229.231 133.026 229.273 134.315 229.287 135.618C226.357 136.567 223.34 137.221 220.28 137.569C217.925 137.697 215.592 138.094 213.327 138.752C208.58 140.279 204.551 143.479 201.988 147.756C201.923 147.85 201.896 147.965 201.914 148.078C201.932 148.191 201.993 148.292 202.084 148.361C202.175 148.43 202.289 148.461 202.403 148.447C202.516 148.433 202.62 148.376 202.692 148.287C204.617 145.951 206.993 144.026 209.678 142.627C212.363 141.229 215.302 140.384 218.32 140.145C222.094 140.328 225.858 139.605 229.295 138.035V138.591C229.288 139.767 229.293 140.943 229.292 142.118C229.138 143.397 228.644 144.612 227.862 145.636C227.081 146.66 226.04 147.457 224.847 147.944C221.778 149.411 218.557 150.536 215.242 151.3C214.682 151.429 214.789 152.308 215.368 152.196C219.858 151.809 224.218 150.485 228.165 148.309C228.588 147.994 228.979 147.64 229.334 147.252C229.459 148.504 229.492 148.797 229.532 148.721C229.561 148.863 229.622 148.998 229.71 149.114C229.799 149.23 229.912 149.325 230.042 149.392C233.119 150.837 231.918 142.343 231.891 141.495Z" fill="url(#paint8_linear_1_5)"/>
<path d="M240.603 122.64C239.096 122.257 237.529 122.171 235.989 122.385C234.108 122.422 232.251 122.632 230.376 122.708C229.752 122.733 229.81 123.679 230.387 123.767C232.248 124.107 234.125 124.341 236.012 124.469C237.553 124.705 239.126 124.59 240.616 124.134C240.761 124.069 240.883 123.963 240.969 123.83C241.054 123.696 241.099 123.541 241.097 123.382C241.096 123.224 241.048 123.069 240.96 122.938C240.873 122.806 240.748 122.702 240.603 122.64Z" fill="url(#paint9_linear_1_5)"/>
<path d="M246.521 138.423C244.97 138.967 243.562 139.856 242.404 141.023L241.844 141.524C241.844 139.679 241.795 137.835 241.917 136.114C242.206 132.022 242.91 127.915 242.847 123.811C242.839 123.273 242.034 123.249 241.856 123.693C240.421 127.834 239.587 132.159 239.378 136.537C238.621 140.49 238.657 144.554 239.484 148.493C239.553 148.649 239.666 148.781 239.809 148.873C239.952 148.965 240.119 149.014 240.289 149.012C240.459 149.011 240.625 148.959 240.767 148.865C240.908 148.77 241.019 148.636 241.085 148.479C241.49 147.089 241.723 145.654 241.779 144.207C242.352 143.613 242.88 142.95 243.484 142.426C244.613 141.446 245.994 140.78 247.098 139.798C247.609 139.345 247.335 138.203 246.521 138.423Z" fill="url(#paint10_linear_1_5)"/>
<path d="M230.963 173.508C228.209 167.837 221.708 156.581 227.219 151.028C227.321 150.94 227.386 150.816 227.4 150.682C227.414 150.547 227.376 150.412 227.293 150.305C227.211 150.198 227.09 150.126 226.957 150.105C226.823 150.084 226.687 150.115 226.575 150.191C218.789 155.467 225.929 168.228 228.993 174.329C229.606 175.55 231.566 174.749 230.963 173.508Z" fill="url(#paint11_linear_1_5)"/>
<path d="M242.48 149.519C241.908 149.42 241.744 150.147 242.096 150.475C249.513 157.395 241.191 166.464 239.874 174.072C239.858 174.248 239.899 174.423 239.991 174.574C240.083 174.724 240.221 174.84 240.384 174.906C240.548 174.972 240.728 174.983 240.898 174.938C241.068 174.893 241.219 174.794 241.329 174.657C244.733 170.179 252.96 151.347 242.48 149.519Z" fill="url(#paint12_linear_1_5)"/>
<path d="M237.061 168.985C235.66 168.895 234.116 169.145 232.971 168.098C231.99 166.814 231.255 165.359 230.803 163.806C229.824 162.194 229.225 160.381 229.05 158.502C228.876 156.624 229.132 154.731 229.798 152.967C230.07 152.418 229.209 152.103 228.924 152.621C228.085 154.696 227.744 156.939 227.929 159.17C228.113 161.401 228.817 163.558 229.985 165.467C231.496 169.131 232.591 171.969 237.089 171.436C237.38 171.386 237.644 171.235 237.834 171.008C238.023 170.781 238.125 170.494 238.122 170.199C238.118 169.903 238.01 169.619 237.815 169.396C237.621 169.174 237.353 169.028 237.061 168.985Z" fill="url(#paint13_linear_1_5)"/>
<path d="M256.456 119.596C255.836 117.526 252.476 116.4 250.479 116.593C247.433 117.507 244.625 119.079 242.252 121.196C242.166 121.266 242.108 121.364 242.089 121.473C242.069 121.582 242.088 121.695 242.144 121.791C242.2 121.886 242.288 121.959 242.392 121.996C242.496 122.033 242.611 122.031 242.714 121.992C244.777 120.981 246.804 119.758 248.904 118.841C251.637 117.648 253.338 119.326 255.624 120.442C256.174 120.711 256.6 120.074 256.456 119.596Z" fill="url(#paint14_linear_1_5)"/>
<path d="M255.058 122.645C253.935 125.403 252.393 127.971 250.487 130.258C248.989 132.243 247.735 134.4 246.75 136.682C246.513 137.375 247.394 138.254 248.018 137.639C250.115 135.206 251.905 132.526 253.349 129.658C254.898 127.666 255.861 125.281 256.129 122.772C256.142 122.632 256.1 122.492 256.011 122.383C255.922 122.274 255.795 122.203 255.655 122.187C255.515 122.17 255.375 122.209 255.263 122.295C255.151 122.38 255.078 122.506 255.058 122.645Z" fill="url(#paint15_linear_1_5)"/>
<path d="M250.884 136.581C250.347 136.906 250.879 137.824 251.438 137.537C254.001 136.2 256.782 135.333 259.651 134.977C261.091 134.642 262.605 134.869 263.883 135.613C265.016 136.503 265.272 138.103 265.868 139.319C265.967 139.537 266.14 139.714 266.357 139.816C266.574 139.918 266.821 139.939 267.052 139.875C267.283 139.812 267.484 139.668 267.619 139.47C267.754 139.271 267.814 139.032 267.787 138.793C266.438 129.66 256.059 133.449 250.884 136.581Z" fill="url(#paint16_linear_1_5)"/>
<path d="M265.918 140.727C259.563 143.224 253.269 146.17 246.966 148.823C245.721 149.347 246.523 151.057 247.753 150.707C254.486 148.852 260.833 145.81 266.495 141.722C266.603 141.635 266.676 141.512 266.701 141.376C266.726 141.239 266.701 141.098 266.632 140.978C266.562 140.858 266.452 140.767 266.321 140.721C266.19 140.675 266.047 140.677 265.918 140.727Z" fill="url(#paint17_linear_1_5)"/>
<path d="M268.133 151.314C267.608 148.995 265.563 148.574 263.418 148.699C259.296 148.985 255.278 150.114 251.611 152.017C251.231 152.217 251.339 152.889 251.824 152.793C255.443 152.078 263.944 148.55 266.726 151.903C267.193 152.467 268.317 152.127 268.133 151.314Z" fill="url(#paint18_linear_1_5)"/>
<path d="M269.62 153.54C269.601 153.428 269.542 153.326 269.455 153.253C269.368 153.181 269.258 153.141 269.144 153.142C269.03 153.144 268.921 153.185 268.835 153.26C268.749 153.335 268.693 153.438 268.677 153.55C268.422 154.481 268.291 155.441 268.287 156.406C267.413 157.173 266.37 157.721 265.243 158.005C263.55 158.55 261.814 158.953 260.053 159.211C256.867 159.8 253.599 160 250.441 160.696C249.356 160.935 249.192 162.727 250.463 162.778C255.292 162.693 260.066 161.735 264.554 159.949C268.98 158.47 270.54 158.468 269.62 153.54Z" fill="url(#paint19_linear_1_5)"/>
<path d="M260.487 168.533C259.991 167.01 258.034 166.314 256.612 165.924C254.509 165.442 252.329 165.404 250.211 165.813C250.072 165.837 249.945 165.909 249.854 166.018C249.763 166.126 249.714 166.264 249.716 166.405C249.717 166.547 249.769 166.683 249.863 166.79C249.956 166.896 250.084 166.966 250.224 166.987C252.158 167.14 254.073 167.476 255.945 167.988C257.128 168.63 258.345 169.21 259.589 169.725C260.277 169.874 260.668 169.088 260.487 168.533Z" fill="url(#paint20_linear_1_5)"/>
<path d="M259.776 170.312C259.72 170.243 259.645 170.192 259.561 170.165C259.476 170.138 259.386 170.137 259.3 170.16C259.215 170.184 259.138 170.232 259.079 170.298C259.021 170.364 258.982 170.447 258.969 170.534C257.821 176.766 248.886 174.672 244.533 173.16C243.371 172.757 242.302 174.391 243.424 175.136C247.293 177.045 251.737 177.431 255.877 176.219C258.519 175.627 261.861 173.407 259.776 170.312Z" fill="url(#paint21_linear_1_5)"/>
<path d="M221.761 163.984C216.274 167.359 209.863 168.919 203.439 168.442C202.668 168.358 202.286 169.596 203.092 169.813C206.449 170.853 210.015 171.019 213.454 170.294C216.892 169.57 220.089 167.98 222.741 165.675C223.454 164.966 222.853 163.419 221.761 163.984Z" fill="url(#paint22_linear_1_5)"/>
<path d="M240.806 146.636C240.818 147.438 241.018 148.226 241.392 148.936C241.766 149.646 242.303 150.257 242.958 150.72C244.591 150.872 246.217 150.37 247.48 149.325C248.812 148.429 250.071 147.428 251.245 146.334L251.419 146.135C252.133 145.548 250.782 142.569 250.044 142.068C248.412 140.961 246.047 141.887 244.485 142.7C242.826 143.527 241.52 144.924 240.806 146.636Z" fill="url(#paint23_linear_1_5)"/>
<path d="M243.44 167.815C242.949 168.245 242.566 168.785 242.323 169.392C242.079 169.998 241.983 170.653 242.041 171.304C242.577 172.479 244.147 173.02 245.293 173.374C246.551 173.728 247.836 173.981 249.135 174.132L249.351 174.134C250.092 174.267 251.228 171.858 251.149 171.136C250.975 169.539 249.153 168.56 247.825 168.02C246.435 167.426 244.879 167.353 243.44 167.815Z" fill="url(#paint24_linear_1_5)"/>
<path d="M241.146 136.539C241.559 137.158 242.112 137.671 242.761 138.035C243.41 138.4 244.136 138.605 244.879 138.636C246.286 138.205 247.129 136.513 247.699 135.27C248.285 133.901 248.762 132.487 249.125 131.043L249.159 130.799C249.419 129.983 246.866 128.343 246.039 128.325C244.21 128.285 242.834 130.198 242.027 131.618C241.151 133.099 240.838 134.846 241.146 136.539Z" fill="url(#paint25_linear_1_5)"/>
<path d="M188.638 159.327C189.16 160.263 189.894 161.065 190.782 161.666C193.17 162.677 195.985 160.878 197.791 159.431C199.721 157.939 201.048 155.802 201.53 153.41C201.416 152.373 200.96 151.403 200.233 150.653C196.743 154.015 192.848 156.928 188.638 159.327Z" fill="url(#paint26_linear_1_5)"/>
<path d="M234.234 139.104C234.293 138.363 234.176 137.617 233.893 136.929C233.609 136.241 233.167 135.63 232.602 135.146C231.107 134.863 229.562 135.185 228.304 136.041C226.996 136.752 225.746 137.566 224.567 138.475L224.388 138.646C223.678 139.126 224.667 141.995 225.305 142.521C226.716 143.686 228.981 143.037 230.493 142.422C232.099 141.802 233.427 140.624 234.234 139.104Z" fill="url(#paint27_linear_1_5)"/>
<path d="M246.918 156.22C246.68 156.948 246.618 157.722 246.736 158.479C246.855 159.235 247.15 159.953 247.599 160.574C249.027 161.216 250.651 161.265 252.115 160.711C253.595 160.314 255.041 159.799 256.44 159.173L256.659 159.046C257.486 158.736 257.186 155.628 256.674 154.947C255.542 153.443 253.12 153.548 251.458 153.8C249.703 154.034 248.091 154.893 246.918 156.22Z" fill="url(#paint28_linear_1_5)"/>
<path d="M241.934 179.283C242.247 178.66 242.404 177.971 242.391 177.275C242.378 176.578 242.197 175.895 241.861 175.285C240.825 174.521 239.019 174.935 237.716 175.274C236.287 175.684 234.89 176.196 233.534 176.804L233.316 176.928C232.515 177.234 232.394 180.094 232.779 180.708C233.631 182.067 235.877 181.907 237.44 181.632C239.147 181.34 240.719 180.518 241.934 179.283Z" fill="url(#paint29_linear_1_5)"/>
<path d="M141.836 226.557C147.253 226.557 150.232 228.833 150.232 233.029C150.232 237.151 144.357 240.815 143.216 241.488L142.391 240.652C146.531 237.731 148.656 235.615 148.656 232.932C148.656 230.06 147.158 227.724 141.835 227.724C119.924 227.724 88.1562 252.927 68.7892 271.935C61.2304 283.893 53.6297 293.874 51.6011 293.874C50.6667 293.874 50.2592 293.251 50.2592 292.248C50.2592 290.608 54.7805 284.591 62.0717 276.819C69.0901 265.236 77.772 249.958 81.8169 240.946C68.7185 253.376 25.3999 295.732 32.7962 303.376L31.5198 303.872C31.3179 303.702 30.1195 302.601 30.1195 300.487C30.1195 287.965 74.5736 245.95 83.0201 238.098C83.7059 236.336 84.091 234.99 84.091 234.192C84.091 232.281 83.3604 230.89 80.0957 230.89C75.6508 230.89 66.2815 234.094 56.2889 237.51C44.9846 241.376 32.895 245.511 26.2066 245.511C16.8527 245.511 15 241.289 15 238.36C15 237.336 16.3204 236.289 17.6058 236.25L17.691 237.374C17.4666 237.414 16.4784 237.644 16.4784 238.65C16.4784 239.705 17.3823 243.227 25.0434 243.227C30.2953 243.227 39.8562 240.193 49.9251 236.996C61.0267 233.472 72.7356 229.755 79.9983 229.755C84.0295 229.755 86.1649 231.551 86.1649 234.967C86.1649 240.945 79.4077 254.449 71.8234 267.022C91.3643 248.433 120.31 226.557 141.835 226.557L141.836 226.557ZM52.5887 291.546C53.7135 290.093 55.7573 287.005 58.285 282.975C55.0042 286.729 52.8087 289.666 52.0538 291.287C51.6812 292.086 51.6848 292.716 52.5887 291.546V291.546ZM104.466 270.537L105.172 271.378C103.553 272.532 94.3885 278.928 89.5643 279.23C87.1902 279.379 85.7737 278.406 85.6551 276.511C85.5914 275.493 86.8193 273.695 88.3659 271.854C87.3094 272.441 86.2853 272.92 85.6982 272.957C84.7441 273.016 83.8617 272.405 83.807 271.527C83.7316 270.323 88.2977 266.738 91.3846 266.544C92.0353 266.504 92.7139 266.587 93.2633 266.69C93.6824 266.286 93.9958 265.991 94.1501 265.847L96.7738 266.592C96.01 267.291 87.3678 275.245 87.4782 277.015C87.5437 278.053 88.0994 278.409 89.2627 278.336C93.8872 278.046 103.071 271.541 104.466 270.537L104.466 270.537ZM86.2522 271.834C87.4272 271.3 89.6533 269.913 90.7448 269.218C91.3569 268.578 91.9468 267.983 92.4629 267.472C92.4009 267.472 92.3417 267.472 92.2851 267.476C90.7502 267.573 87.1024 270.365 86.0585 271.515C85.7497 271.855 85.7811 272.046 86.2523 271.834L86.2522 271.834ZM116.133 262.24C108.287 270.423 100.013 280.085 99.8972 281.518C99.8559 282.028 99.9637 282.116 100.141 282.131C104.638 282.494 121.543 270.307 121.543 270.307L122.146 271.237C122.146 271.237 104.938 283.548 100.15 283.16C98.6671 283.039 97.8585 282.114 97.975 280.663C98.2022 277.862 105.482 269.733 112.742 262.608L106.089 263.33L106.183 262.173L114.015 261.369C119.895 255.69 125.488 250.918 126.996 250.455L127.884 251.241C125.543 252.866 121.549 256.657 117.299 261.032L128.178 259.914L128.094 260.944L116.133 262.24ZM143.94 270.659L144.835 271.413C143.677 272.461 134.875 280.294 130.589 280.294C128.23 280.294 127.119 279.07 127.326 276.702C127.483 274.894 129.282 272.128 131.092 269.76C127.72 272.063 123.068 275.055 121.636 275.055C120.559 275.055 120.04 274.6 120.119 273.695C120.273 271.922 124.596 267.766 125.121 267.267H127.414C127.373 267.531 127.199 268.174 126.709 268.669C123.45 271.951 121.926 273.638 121.862 274.02C123.156 273.738 131.497 268.128 133.564 266.728C134.141 266.061 134.589 265.568 134.801 265.337L137.526 265.595C137.42 265.727 137.177 266.029 136.729 266.582C134.636 269.167 129.383 275.655 129.22 277.526C129.111 278.767 129.5 279.271 130.535 279.271C134.305 279.271 143.158 271.364 143.94 270.659L143.94 270.659ZM171.407 270.349L172.09 271.191C165.557 276.806 156.24 283.317 152.469 283.248C150.417 283.21 150.128 281.728 150.154 280.316C150.241 275.551 158.004 266.616 159.559 264.871C157.834 264.331 156.272 263.597 155.078 262.954C152.631 265.282 149.001 268.429 144.696 271.947L144.063 270.996C148.979 267.009 152.11 264.247 154.075 262.388C153.763 262.204 153.497 262.039 153.285 261.904C152.749 261.562 152.608 261.188 153.187 260.702C154.228 259.828 156.603 258.21 157.572 258.228C158.151 258.239 158.45 258.494 158.44 259.035C158.432 259.467 157.497 260.587 155.854 262.204C157.953 263.319 159.532 263.88 160.393 264.139C161.338 264.423 161.407 264.745 160.509 266.148C158.156 269.823 152.027 279.565 151.995 281.305C151.983 281.921 152.104 282.265 152.406 282.271C155.79 282.334 163.728 276.404 167.505 273.515C168.87 272.47 170.169 271.412 171.408 270.35L171.407 270.349ZM154.242 261.291C154.447 261.414 154.649 261.533 154.848 261.647C156.104 260.419 156.732 259.691 157.008 259.321C156.258 259.767 154.858 260.821 154.242 261.291ZM186.133 270.17L186.504 271.171C184.415 272.52 176.089 276.921 171.907 276.921C169.701 276.921 169.401 275.573 169.401 274.596C169.401 271.78 176.484 265.248 179.529 265.248C180.353 265.248 181.125 265.706 181.125 266.455C181.125 267.688 176.458 269.807 174.384 270.688C172.815 272.484 171.509 274.327 171.509 275.201C171.509 275.641 171.693 275.958 171.876 275.958C175.486 275.958 182.443 272.453 186.133 270.17L186.133 270.17ZM179.743 266.334C179.743 266.267 179.686 266.15 179.528 266.15C179.053 266.15 177.706 267.246 176.249 268.696C177.95 267.889 179.743 266.903 179.743 266.334H179.743ZM209.394 270.494L209.972 271.454C208.478 272.466 184.851 288.389 178.581 288.389C177.132 288.389 176.197 287.479 176.197 286.063C176.197 278.26 201.089 253.369 205.802 253.369C206.706 253.369 207.219 253.852 207.219 254.727C207.219 258.29 199.246 264.966 190.32 269.073C183.989 276.434 178.183 284.203 178.183 286.305C178.183 287.037 178.384 287.246 178.823 287.246C183.622 287.246 208.341 271.181 209.394 270.494L209.394 270.494ZM205.802 254.271C204.156 254.271 198.146 260.182 192.151 266.97C196.941 264.288 205.837 258.127 205.837 254.606C205.837 254.123 205.986 254.272 205.802 254.272L205.802 254.271ZM233.45 270.494L234.028 271.454C232.534 272.466 208.907 288.389 202.637 288.389C201.188 288.389 200.253 287.479 200.253 286.063C200.253 278.26 225.145 253.369 229.858 253.369C230.762 253.369 231.275 253.852 231.275 254.727C231.275 258.29 223.302 264.966 214.376 269.073C208.045 276.434 202.239 284.203 202.239 286.305C202.239 287.037 202.44 287.246 202.879 287.246C207.677 287.246 232.397 271.181 233.45 270.494L233.45 270.494ZM229.858 254.271C228.212 254.271 222.202 260.182 216.207 266.97C220.997 264.288 229.893 258.127 229.893 254.606C229.893 254.123 230.042 254.272 229.858 254.272L229.858 254.271ZM254.187 270.537L254.893 271.378C253.274 272.532 244.11 278.928 239.286 279.23C236.911 279.379 235.495 278.406 235.376 276.511C235.313 275.493 236.54 273.695 238.087 271.854C237.031 272.441 236.006 272.92 235.419 272.957C234.465 273.016 233.583 272.405 233.528 271.527C233.453 270.323 238.019 266.738 241.106 266.544C241.757 266.504 242.435 266.587 242.984 266.69C243.404 266.286 243.717 265.991 243.871 265.847L246.495 266.592C245.731 267.291 237.089 275.245 237.199 277.015C237.265 278.053 237.821 278.409 238.984 278.336C243.608 278.046 252.792 271.541 254.187 270.537L254.187 270.537ZM235.973 271.834C237.148 271.3 239.374 269.913 240.466 269.218C241.078 268.578 241.668 267.983 242.184 267.472C242.122 267.472 242.063 267.472 242.006 267.476C240.471 267.573 236.824 270.365 235.78 271.515C235.471 271.855 235.502 272.046 235.973 271.834L235.973 271.834ZM323.358 218.748C320.013 220.254 315.098 224.613 311.495 229.317C312.179 230.239 312.541 231.524 312.541 233.123C312.541 236.204 309.325 240.625 307.142 240.625C304.805 240.625 305.07 237.142 307.207 232.428C307.765 231.198 308.458 229.975 309.251 228.79C308.878 228.626 308.431 228.533 307.892 228.533C304.803 228.533 301.783 231 300.197 234.945C299.279 237.225 298.761 239.777 298.761 242.341C298.761 244.143 298.832 246.169 298.91 248.367C299.117 254.207 299.365 261.223 298.412 268.227C306.147 268.329 312.067 269.806 313.225 270.494L312.827 271.401C311.712 270.78 305.822 269.233 298.278 269.152C297.809 272.254 297.092 275.341 296.022 278.314C289.144 297.422 271.492 317 257.782 317C248.061 317 246.926 311.128 246.926 307.51C246.926 291.941 272.687 269.475 295.664 268.271C296.416 262.604 296.364 257.313 296.318 252.415C296.281 248.668 296.247 245.146 296.582 241.845C296.905 238.657 297.497 236.161 298.39 234.125C300.253 229.88 303.434 227.649 307.8 227.649C308.547 227.649 309.213 227.77 309.794 228.006C313.249 223.19 318.322 219.13 322.76 218L323.358 218.748ZM311.093 233.214C311.093 232.464 311.073 231.345 310.701 230.39C309.995 231.378 309.356 232.372 308.809 233.351C307.222 236.19 306.516 239.606 307.163 239.606C308.036 239.606 311.093 235.937 311.093 233.214ZM257.144 315.82C269.91 315.82 287.357 298.866 293.741 277.373C294.573 274.573 295.144 271.853 295.533 269.214C273.117 270.547 248.303 292.397 248.303 307.791C248.303 312.852 251.565 315.821 257.145 315.821L257.144 315.82ZM333.177 270.537L333.882 271.378C332.264 272.532 323.099 278.928 318.275 279.23C315.901 279.379 314.484 278.406 314.366 276.511C314.302 275.493 315.53 273.695 317.077 271.854C316.02 272.441 314.996 272.92 314.409 272.957C313.455 273.016 312.572 272.405 312.518 271.527C312.442 270.323 317.008 266.738 320.095 266.544C320.746 266.504 321.425 266.587 321.974 266.69C322.393 266.286 322.707 265.991 322.861 265.847L325.485 266.592C324.721 267.291 316.079 275.245 316.189 277.015C316.254 278.053 316.81 278.409 317.974 278.336C322.598 278.046 331.782 271.541 333.177 270.537L333.177 270.537ZM314.963 271.834C316.138 271.3 318.364 269.913 319.456 269.218C320.068 268.578 320.658 267.983 321.174 267.472C321.112 267.472 321.052 267.472 320.996 267.476C319.461 267.573 315.813 270.365 314.769 271.515C314.46 271.855 314.492 272.046 314.963 271.834L314.963 271.834ZM357.32 270.494L357.898 271.454C356.404 272.466 332.777 288.389 326.507 288.389C325.058 288.389 324.123 287.479 324.123 286.063C324.123 278.26 349.015 253.369 353.728 253.369C354.632 253.369 355.145 253.852 355.145 254.727C355.145 258.29 347.172 264.966 338.246 269.073C331.915 276.434 326.109 284.203 326.109 286.305C326.109 287.037 326.31 287.246 326.749 287.246C331.548 287.246 356.267 271.181 357.32 270.494L357.32 270.494ZM353.728 254.271C352.082 254.271 346.072 260.182 340.077 266.97C344.867 264.288 353.763 258.127 353.763 254.606C353.763 254.123 353.912 254.272 353.728 254.272L353.728 254.271ZM368.801 271.159C366.295 272.335 363.582 272.897 361.651 272.585C360.07 274.704 357.64 276.635 356.001 276.635C354.959 276.635 354.462 275.985 354.462 274.792C354.462 273.356 356.479 271.522 358.419 270.091C358.365 269.841 358.351 269.58 358.381 269.311C358.517 268.081 359.595 267.143 360.871 267.143C362.234 267.143 363.225 267.905 363.225 268.985C363.225 269.782 362.84 270.756 362.229 271.74C364.019 271.885 366.047 271.409 368.529 270.193L368.801 271.159ZM360.992 267.923C360.44 267.923 359.813 268.5 359.661 269.216C360.412 268.71 361.071 268.303 361.487 268.054C361.347 267.971 361.181 267.923 360.992 267.923V267.923ZM360.07 270.79C360.269 271.053 360.519 271.274 360.79 271.421C361.404 270.507 361.842 269.668 361.942 269.175C361.429 269.595 360.765 270.164 360.07 270.79L360.07 270.79ZM356.098 275.728C357.256 275.633 358.985 273.887 360.267 272.16C359.886 271.983 359.554 271.765 359.28 271.517C357.648 273.048 356.086 274.714 356.086 275.396C356.086 275.647 356.127 275.712 356.098 275.728L356.098 275.728ZM395.81 270.51L396.585 271.28C395.505 272.354 387.413 280.235 382.704 280.235C379.78 280.235 378.395 278.505 378.985 275.603C379.239 274.351 380.367 272.655 381.214 271.383C382.009 270.188 382.255 269.758 382.255 269.521C382.255 269.487 382.283 269.474 382.296 269.47C382.286 269.472 382.267 269.472 382.228 269.472C381.48 269.472 378.957 270.78 374.806 273.334C374.678 273.413 374.529 273.484 374.378 273.545C373.493 274.612 372.513 275.744 371.443 276.908L369.567 275.691C369.567 275.691 375.933 268.331 377.387 266.233C378.261 264.971 378.391 264.479 377.997 264.479C376.896 264.479 374.645 266.507 371.73 269.134C370.392 270.341 369.859 270.815 368.907 271.645L368.237 270.708C369.086 269.962 370.036 269.101 370.846 268.365C373.925 265.571 376.131 263.569 377.997 263.569C379.985 263.569 380.431 264.918 379.144 267.257C378.486 268.207 377.529 269.555 376.294 271.151C378.393 269.941 381.07 268.564 382.386 268.564C383.391 268.564 384.104 269.099 384.104 269.996C384.104 271.219 382.909 273.106 381.986 274.561C381.242 275.735 381.039 276.102 380.907 276.483C380.535 277.555 380.789 279.326 382.439 279.326C387.119 279.326 395.143 271.194 395.81 270.51L395.81 270.51Z" fill="url(#paint30_linear_1_5)"/>
</g>
<defs>
<linearGradient id="paint0_linear_1_5" x1="1.96365" y1="235.372" x2="290.311" y2="235.372" gradientUnits="userSpaceOnUse">
<stop/>
<stop offset="0.5" stop-color="#FBF4A1"/>
<stop offset="1" stop-color="#110C07"/>
</linearGradient>
<linearGradient id="paint1_linear_1_5" x1="106.36" y1="174.49" x2="410.296" y2="174.49" gradientUnits="userSpaceOnUse">
<stop/>
<stop offset="0.5" stop-color="#FBF4A1"/>
<stop offset="1" stop-color="#110C07"/>
</linearGradient>
<linearGradient id="paint2_linear_1_5" x1="1.52588e-05" y1="0" x2="428.571" y2="0" gradientUnits="userSpaceOnUse">
<stop/>
<stop offset="0.5" stop-color="#FBF4A1"/>
<stop offset="1" stop-color="#110C07"/>
</linearGradient>
<linearGradient id="paint3_linear_1_5" x1="81.44" y1="295.202" x2="393.466" y2="295.202" gradientUnits="userSpaceOnUse">
<stop/>
<stop offset="0.5" stop-color="#FBF4A1"/>
<stop offset="1" stop-color="#110C07"/>
</linearGradient>
<linearGradient id="paint4_linear_1_5" x1="159.086" y1="152.977" x2="199.153" y2="152.977" gradientUnits="userSpaceOnUse">
<stop/>
<stop offset="0.5" stop-color="#FBF4A1"/>
<stop offset="1"/>
</linearGradient>
<linearGradient id="paint5_linear_1_5" x1="178.279" y1="156.558" x2="201.437" y2="156.558" gradientUnits="userSpaceOnUse">
<stop/>
<stop offset="0.5" stop-color="#FBF4A1"/>
<stop offset="1"/>
</linearGradient>
<linearGradient id="paint6_linear_1_5" x1="165.423" y1="175.415" x2="239.174" y2="175.415" gradientUnits="userSpaceOnUse">
<stop/>
<stop offset="0.5" stop-color="#FBF4A1"/>
<stop offset="1"/>
</linearGradient>
<linearGradient id="paint7_linear_1_5" x1="160.914" y1="180.39" x2="238.449" y2="180.39" gradientUnits="userSpaceOnUse">
<stop/>
<stop offset="0.5" stop-color="#FBF4A1"/>
<stop offset="1"/>
</linearGradient>
<linearGradient id="paint8_linear_1_5" x1="201.908" y1="122.965" x2="232.144" y2="122.965" gradientUnits="userSpaceOnUse">
<stop/>
<stop offset="0.5" stop-color="#FBF4A1"/>
<stop offset="1"/>
</linearGradient>
<linearGradient id="paint9_linear_1_5" x1="229.931" y1="122.27" x2="241.097" y2="122.27" gradientUnits="userSpaceOnUse">
<stop/>
<stop offset="0.5" stop-color="#FBF4A1"/>
<stop offset="1"/>
</linearGradient>
<linearGradient id="paint10_linear_1_5" x1="238.836" y1="123.382" x2="247.357" y2="123.382" gradientUnits="userSpaceOnUse">
<stop/>
<stop offset="0.5" stop-color="#FBF4A1"/>
<stop offset="1"/>
</linearGradient>
<linearGradient id="paint11_linear_1_5" x1="223.06" y1="150.099" x2="231.077" y2="150.099" gradientUnits="userSpaceOnUse">
<stop/>
<stop offset="0.5" stop-color="#FBF4A1"/>
<stop offset="1"/>
</linearGradient>
<linearGradient id="paint12_linear_1_5" x1="239.871" y1="149.51" x2="247.623" y2="149.51" gradientUnits="userSpaceOnUse">
<stop/>
<stop offset="0.5" stop-color="#FBF4A1"/>
<stop offset="1"/>
</linearGradient>
<linearGradient id="paint13_linear_1_5" x1="227.88" y1="152.357" x2="238.122" y2="152.357" gradientUnits="userSpaceOnUse">
<stop/>
<stop offset="0.5" stop-color="#FBF4A1"/>
<stop offset="1"/>
</linearGradient>
<linearGradient id="paint14_linear_1_5" x1="242.081" y1="116.571" x2="256.484" y2="116.571" gradientUnits="userSpaceOnUse">
<stop/>
<stop offset="0.5" stop-color="#FBF4A1"/>
<stop offset="1"/>
</linearGradient>
<linearGradient id="paint15_linear_1_5" x1="246.711" y1="122.183" x2="256.131" y2="122.183" gradientUnits="userSpaceOnUse">
<stop/>
<stop offset="0.5" stop-color="#FBF4A1"/>
<stop offset="1"/>
</linearGradient>
<linearGradient id="paint16_linear_1_5" x1="250.661" y1="133.069" x2="267.793" y2="133.069" gradientUnits="userSpaceOnUse">
<stop/>
<stop offset="0.5" stop-color="#FBF4A1"/>
<stop offset="1"/>
</linearGradient>
<linearGradient id="paint17_linear_1_5" x1="246.342" y1="140.688" x2="266.71" y2="140.688" gradientUnits="userSpaceOnUse">
<stop/>
<stop offset="0.5" stop-color="#FBF4A1"/>
<stop offset="1"/>
</linearGradient>
<linearGradient id="paint18_linear_1_5" x1="251.382" y1="148.679" x2="268.153" y2="148.679" gradientUnits="userSpaceOnUse">
<stop/>
<stop offset="0.5" stop-color="#FBF4A1"/>
<stop offset="1"/>
</linearGradient>
<linearGradient id="paint19_linear_1_5" x1="249.568" y1="153.142" x2="269.874" y2="153.142" gradientUnits="userSpaceOnUse">
<stop/>
<stop offset="0.5" stop-color="#FBF4A1"/>
<stop offset="1"/>
</linearGradient>
<linearGradient id="paint20_linear_1_5" x1="249.716" y1="165.532" x2="260.531" y2="165.532" gradientUnits="userSpaceOnUse">
<stop/>
<stop offset="0.5" stop-color="#FBF4A1"/>
<stop offset="1"/>
</linearGradient>
<linearGradient id="paint21_linear_1_5" x1="242.949" y1="170.144" x2="260.429" y2="170.144" gradientUnits="userSpaceOnUse">
<stop/>
<stop offset="0.5" stop-color="#FBF4A1"/>
<stop offset="1"/>
</linearGradient>
<linearGradient id="paint22_linear_1_5" x1="202.644" y1="163.862" x2="223.05" y2="163.862" gradientUnits="userSpaceOnUse">
<stop/>
<stop offset="0.5" stop-color="#FBF4A1"/>
<stop offset="1"/>
</linearGradient>
<linearGradient id="paint23_linear_1_5" x1="240.806" y1="141.559" x2="251.621" y2="141.559" gradientUnits="userSpaceOnUse">
<stop/>
<stop offset="0.5" stop-color="#FBF4A1"/>
<stop offset="1"/>
</linearGradient>
<linearGradient id="paint24_linear_1_5" x1="242.025" y1="167.515" x2="251.153" y2="167.515" gradientUnits="userSpaceOnUse">
<stop/>
<stop offset="0.5" stop-color="#FBF4A1"/>
<stop offset="1"/>
</linearGradient>
<linearGradient id="paint25_linear_1_5" x1="241.03" y1="128.325" x2="249.178" y2="128.325" gradientUnits="userSpaceOnUse">
<stop/>
<stop offset="0.5" stop-color="#FBF4A1"/>
<stop offset="1"/>
</linearGradient>
<linearGradient id="paint26_linear_1_5" x1="188.638" y1="150.653" x2="201.53" y2="150.653" gradientUnits="userSpaceOnUse">
<stop/>
<stop offset="0.5" stop-color="#FBF4A1"/>
<stop offset="1"/>
</linearGradient>
<linearGradient id="paint27_linear_1_5" x1="224.142" y1="135.046" x2="234.249" y2="135.046" gradientUnits="userSpaceOnUse">
<stop/>
<stop offset="0.5" stop-color="#FBF4A1"/>
<stop offset="1"/>
</linearGradient>
<linearGradient id="paint28_linear_1_5" x1="246.678" y1="153.651" x2="257.174" y2="153.651" gradientUnits="userSpaceOnUse">
<stop/>
<stop offset="0.5" stop-color="#FBF4A1"/>
<stop offset="1"/>
</linearGradient>
<linearGradient id="paint29_linear_1_5" x1="232.568" y1="174.853" x2="242.392" y2="174.853" gradientUnits="userSpaceOnUse">
<stop/>
<stop offset="0.5" stop-color="#FBF4A1"/>
<stop offset="1"/>
</linearGradient>
<linearGradient id="paint30_linear_1_5" x1="15" y1="218" x2="396.585" y2="218" gradientUnits="userSpaceOnUse">
<stop/>
<stop offset="0.5" stop-color="#FBF4A1"/>
<stop offset="1"/>
</linearGradient>
<clipPath id="clip0_1_5">
<rect width="428.571" height="435.6" fill="white"/>
</clipPath>
</defs>
</svg>
